<svg width="159" height="24" viewBox="0 0 159 24" fill="none" xmlns="http://www.w3.org/2000/svg">
<path d="M17.424 18.56H15.24L12.528 12.68H5.28001L2.59201 18.56H0.312012L8.61601 0.296021H9.24001L17.424 18.56ZM11.592 10.592L8.92801 4.66402L6.24001 10.592H11.592Z" fill="#FFF4DF"/>
<path d="M30.7016 18.56H28.7096V16.592C27.4136 18.128 25.8776 18.896 24.1016 18.896C23.1576 18.896 22.3016 18.656 21.5336 18.176C20.7656 17.68 20.1896 17.008 19.8056 16.16C19.4216 15.296 19.2296 13.976 19.2296 12.2V5.48002H21.1976V11.72C21.1976 13.16 21.2616 14.144 21.3896 14.672C21.5336 15.184 21.7336 15.624 21.9896 15.992C22.2616 16.344 22.5976 16.608 22.9976 16.784C23.4136 16.96 23.9096 17.048 24.4856 17.048C25.0776 17.048 25.6536 16.904 26.2136 16.616C26.7736 16.328 27.2536 15.928 27.6536 15.416C28.0536 14.904 28.3256 14.36 28.4696 13.784C28.6296 13.208 28.7096 12.056 28.7096 10.328V5.48002H30.7016V18.56Z" fill="#FFF4DF"/>
<path d="M40.0472 7.20802H37.4552V16.376C37.4552 16.712 37.5032 16.92 37.5992 17C37.6952 17.064 37.9352 17.096 38.3192 17.096H39.4712V18.8C38.7032 18.928 38.1192 18.992 37.7192 18.992C36.9512 18.992 36.3832 18.808 36.0152 18.44C35.6472 18.056 35.4632 17.456 35.4632 16.64V7.20802H33.2072V5.48002H35.4632V0.56002H37.4552V5.48002H40.0472V7.20802Z" fill="#FFF4DF"/>
<path d="M48.372 5.14402C50.26 5.14402 51.86 5.82402 53.172 7.18402C54.5 8.54402 55.164 10.176 55.164 12.08C55.164 13.984 54.508 15.616 53.196 16.976C51.9 18.32 50.292 18.992 48.372 18.992C46.452 18.992 44.836 18.32 43.524 16.976C42.212 15.616 41.556 13.984 41.556 12.08C41.556 10.176 42.212 8.54402 43.524 7.18402C44.852 5.82402 46.468 5.14402 48.372 5.14402ZM48.372 17.096C49.7 17.096 50.828 16.616 51.756 15.656C52.7 14.68 53.172 13.512 53.172 12.152C53.172 10.776 52.692 9.59202 51.732 8.60002C50.788 7.59202 49.66 7.08802 48.348 7.08802C47.052 7.08802 45.932 7.59202 44.988 8.60002C44.044 9.59202 43.572 10.776 43.572 12.152C43.572 13.528 44.028 14.696 44.94 15.656C45.852 16.616 46.996 17.096 48.372 17.096Z" fill="#FFF4DF"/>
<path d="M65.4906 8.93602C66.6106 9.35202 67.4506 9.94402 68.0106 10.712C68.5866 11.48 68.8746 12.392 68.8746 13.448C68.8746 14.92 68.3386 16.144 67.2666 17.12C66.2106 18.08 64.8266 18.56 63.1146 18.56H58.1946V0.99202H61.7706C63.6266 0.99202 65.0346 1.37602 65.9946 2.14402C66.9706 2.89602 67.4586 3.97602 67.4586 5.38402C67.4586 6.92002 66.8026 8.10402 65.4906 8.93602ZM60.2346 8.19202H61.0506C62.4906 8.19202 63.5626 7.96802 64.2666 7.52002C64.9866 7.07202 65.3466 6.36002 65.3466 5.38402C65.3466 3.80002 64.2506 3.00802 62.0586 3.00802H60.2346V8.19202ZM60.2346 16.544H62.2026C63.4346 16.544 64.3306 16.424 64.8906 16.184C65.4506 15.944 65.8986 15.576 66.2346 15.08C66.5706 14.584 66.7386 14.08 66.7386 13.568C66.7386 13.056 66.6346 12.608 66.4266 12.224C66.2346 11.824 65.9386 11.472 65.5386 11.168C65.1546 10.864 64.6746 10.64 64.0986 10.496C63.5386 10.336 62.5146 10.256 61.0266 10.256H60.2346V16.544Z" fill="#FFF4DF"/>
<path d="M84.6958 18.56H82.7518V16.64C81.3278 18.208 79.6878 18.992 77.8318 18.992C75.9758 18.992 74.3838 18.312 73.0558 16.952C71.7438 15.576 71.0878 13.944 71.0878 12.056C71.0878 10.152 71.7518 8.52802 73.0798 7.18402C74.4078 5.82402 76.0238 5.14402 77.9278 5.14402C79.8478 5.14402 81.4558 5.92002 82.7518 7.47202V5.48002H84.6958V18.56ZM77.9758 17.144C79.3038 17.144 80.4478 16.664 81.4078 15.704C82.3678 14.744 82.8478 13.552 82.8478 12.128C82.8478 10.688 82.3758 9.48802 81.4318 8.52802C80.4878 7.55202 79.3278 7.06402 77.9518 7.06402C76.5918 7.06402 75.4398 7.56802 74.4958 8.57602C73.5518 9.56802 73.0798 10.744 73.0798 12.104C73.0798 13.464 73.5598 14.648 74.5198 15.656C75.4798 16.648 76.6318 17.144 77.9758 17.144Z" fill="#FFF4DF"/>
<path d="M99.5186 18.56H97.5506V12.32C97.5506 10.88 97.4786 9.90402 97.3346 9.39202C97.2066 8.86402 97.0066 8.42402 96.7346 8.07202C96.4786 7.70402 96.1426 7.43202 95.7266 7.25602C95.3266 7.08002 94.8306 6.99202 94.2386 6.99202C93.6626 6.99202 93.0946 7.13602 92.5346 7.42402C91.9746 7.71202 91.4946 8.11202 91.0946 8.62402C90.6946 9.13602 90.4146 9.68002 90.2546 10.256C90.1106 10.832 90.0386 11.984 90.0386 13.712V18.56H88.0466V5.48002H90.0386V7.44802C91.3346 5.91202 92.8706 5.14402 94.6466 5.14402C95.5906 5.14402 96.4466 5.39202 97.2146 5.88802C97.9826 6.36802 98.5586 7.04002 98.9426 7.90402C99.3266 8.75202 99.5186 10.064 99.5186 11.84V18.56Z" fill="#FFF4DF"/>
<path d="M115.775 15.488C115.775 17.216 115.623 18.496 115.319 19.328C115.031 20.16 114.583 20.864 113.975 21.44C113.383 22.016 112.663 22.448 111.815 22.736C110.983 23.04 110.063 23.192 109.055 23.192C105.647 23.192 103.375 21.752 102.239 18.872H104.351C105.279 20.536 106.823 21.368 108.983 21.368C109.975 21.368 110.863 21.176 111.647 20.792C112.431 20.408 112.983 19.896 113.303 19.256C113.623 18.616 113.783 17.632 113.783 16.304V16.184C113.159 16.888 112.407 17.424 111.527 17.792C110.647 18.16 109.735 18.344 108.791 18.344C106.903 18.344 105.319 17.696 104.039 16.4C102.775 15.104 102.151 13.576 102.167 11.816C102.151 9.97602 102.815 8.40802 104.159 7.11202C105.503 5.80002 107.095 5.14402 108.935 5.14402C110.791 5.14402 112.407 5.89602 113.783 7.40002V5.48002H115.775V15.488ZM113.855 11.816C113.855 10.44 113.391 9.30402 112.463 8.40802C111.551 7.51202 110.431 7.06402 109.103 7.06402C107.695 7.06402 106.511 7.55202 105.551 8.52802C104.607 9.48802 104.135 10.608 104.135 11.888C104.135 13.168 104.591 14.256 105.503 15.152C106.415 16.032 107.583 16.472 109.007 16.472C110.431 16.472 111.591 16.04 112.487 15.176C113.399 14.296 113.855 13.176 113.855 11.816Z" fill="#FFF4DF"/>
<path d="M130.124 18.56H128.132V16.592C126.836 18.128 125.3 18.896 123.524 18.896C122.58 18.896 121.724 18.656 120.956 18.176C120.188 17.68 119.612 17.008 119.228 16.16C118.844 15.296 118.652 13.976 118.652 12.2V5.48002H120.62V11.72C120.62 13.16 120.684 14.144 120.812 14.672C120.956 15.184 121.156 15.624 121.412 15.992C121.684 16.344 122.02 16.608 122.42 16.784C122.836 16.96 123.332 17.048 123.908 17.048C124.5 17.048 125.076 16.904 125.636 16.616C126.196 16.328 126.676 15.928 127.076 15.416C127.476 14.904 127.748 14.36 127.892 13.784C128.052 13.208 128.132 12.056 128.132 10.328V5.48002H130.124V18.56Z" fill="#FFF4DF"/>
<path d="M152.837 18.56H150.821V11.432C150.821 10.296 150.749 9.46402 150.605 8.93602C150.477 8.40802 150.181 7.96802 149.717 7.61602C149.269 7.24802 148.669 7.06402 147.917 7.06402C147.181 7.06402 146.485 7.30402 145.829 7.78402C145.173 8.26402 144.717 8.92002 144.461 9.75202C144.205 10.568 144.077 11.784 144.077 13.4V18.56H142.133V11.864C142.133 10.552 142.061 9.60802 141.917 9.03202C141.789 8.45602 141.493 7.98402 141.029 7.61602C140.565 7.24802 139.981 7.06402 139.277 7.06402C138.573 7.06402 137.901 7.28802 137.261 7.73602C136.637 8.16802 136.173 8.74402 135.869 9.46402C135.565 10.168 135.413 11.344 135.413 12.992V18.56H133.445V5.48002H135.413V7.32802C136.533 5.87202 137.933 5.14402 139.613 5.14402C140.525 5.14402 141.349 5.39202 142.085 5.88802C142.837 6.36802 143.373 7.05602 143.693 7.95202C144.237 7.04002 144.917 6.34402 145.733 5.86402C146.549 5.38402 147.413 5.14402 148.325 5.14402C149.573 5.14402 150.637 5.58402 151.517 6.46402C152.397 7.34402 152.837 9.00002 152.837 11.432V18.56Z" fill="#FFF4DF"/>
<path d="M156.713 0.56002C157.145 0.56002 157.505 0.71202 157.793 1.01602C158.097 1.30402 158.249 1.66402 158.249 2.09602C158.249 2.51202 158.097 2.87202 157.793 3.17602C157.505 3.46402 157.145 3.60802 156.713 3.60802C156.297 3.60802 155.937 3.45602 155.633 3.15202C155.345 2.84802 155.201 2.49602 155.201 2.09602C155.201 1.68002 155.345 1.32002 155.633 1.01602C155.937 0.71202 156.297 0.56002 156.713 0.56002ZM157.721 18.56H155.729V5.48002H157.721V18.56Z" fill="#FFF4DF"/>
</svg>
