<svg width="24" height="24" viewBox="0 0 24 24" fill="none" xmlns="http://www.w3.org/2000/svg">
<path d="M12 0C9.62662 -2.83022e-08 7.30655 0.703788 5.33316 2.02236C3.35977 3.34094 1.8217 5.21509 0.913446 7.4078C0.00519403 9.60051 -0.232446 12.0133 0.230577 14.3411C0.693599 16.6689 1.83649 18.8071 3.51472 20.4853C5.19295 22.1635 7.33114 23.3064 9.65892 23.7694C11.9867 24.2324 14.3995 23.9948 16.5922 23.0866C18.7849 22.1783 20.6591 20.6402 21.9776 18.6668C23.2962 16.6935 24 14.3734 24 12H16.1979C16.1979 12.8303 15.9517 13.6419 15.4905 14.3323C15.0292 15.0226 14.3736 15.5607 13.6065 15.8784C12.8394 16.1961 11.9953 16.2793 11.181 16.1173C10.3667 15.9553 9.6187 15.5555 9.03161 14.9684C8.44451 14.3813 8.0447 13.6333 7.88272 12.819C7.72074 12.0047 7.80387 11.1606 8.12161 10.3935C8.43934 9.62644 8.9774 8.97081 9.66775 8.50954C10.3581 8.04826 11.1697 7.80206 12 7.80206V0Z" fill="white"/>
<circle cx="12" cy="12" r="2" fill="#DBBB7F"/>
<path d="M19 11C19 10.2121 18.8577 9.43185 18.5813 8.7039C18.3049 7.97595 17.8998 7.31451 17.3891 6.75736C16.8784 6.20021 16.272 5.75825 15.6048 5.45672C14.9375 5.15519 14.2223 5 13.5 5L13.5 8.06002C13.8539 8.06002 14.2044 8.13607 14.5313 8.28381C14.8583 8.43156 15.1554 8.64812 15.4056 8.92112C15.6559 9.19412 15.8544 9.51822 15.9898 9.87492C16.1253 10.2316 16.195 10.6139 16.195 11H19Z" fill="#DBBB7F"/>
<path d="M13.5 0C14.8789 1.7226e-08 16.2443 0.284523 17.5182 0.837325C18.7921 1.39013 19.9496 2.20038 20.9246 3.22183C21.8996 4.24327 22.6731 5.4559 23.2007 6.79048C23.7284 8.12506 24 9.55546 24 11L20.8595 11C20.8595 9.98751 20.6692 8.98494 20.2993 8.04953C19.9295 7.11411 19.3874 6.26417 18.704 5.54823C18.0206 4.8323 17.2093 4.26439 16.3164 3.87692C15.4235 3.48946 14.4665 3.29004 13.5 3.29004V0Z" fill="#DBBB7F"/>
</svg>
