<svg width="97" height="96" viewBox="0 0 97 96" fill="none" xmlns="http://www.w3.org/2000/svg">
<g clip-path="url(#clip0_1852_4762)">
<path d="M48.0344 0C38.5409 -1.13209e-07 29.2606 2.81515 21.367 8.08946C13.4734 13.3638 7.32115 20.8603 3.68815 29.6312C0.0551389 38.4021 -0.895421 48.0532 0.956669 57.3643C2.80876 66.6754 7.38032 75.2282 14.0932 81.9411C20.8062 88.654 29.3589 93.2256 38.67 95.0777C47.9811 96.9298 57.6323 95.9792 66.4032 92.3462C75.174 88.7132 82.6706 82.5609 87.9449 74.6674C93.2192 66.7738 96.0344 57.4935 96.0344 48H64.8261C64.8261 51.3211 63.8413 54.5676 61.9962 57.329C60.1511 60.0904 57.5286 62.2426 54.4603 63.5136C51.392 64.7845 48.0157 65.117 44.7584 64.4691C41.5012 63.8212 38.5092 62.222 36.1608 59.8736C33.8124 57.5252 32.2132 54.5332 31.5652 51.2759C30.9173 48.0186 31.2499 44.6424 32.5208 41.5741C33.7917 38.5058 35.944 35.8833 38.7054 34.0382C41.4667 32.193 44.7133 31.2082 48.0344 31.2082V0Z" fill="url(#paint0_angular_1852_4762)"/>
<circle cx="48.0344" cy="48" r="8" fill="#DBBB7F"/>
<path d="M76.0344 43C76.0344 39.9796 75.4394 36.9888 74.2836 34.1983C73.1277 31.4078 71.4336 28.8723 69.2978 26.7365C67.1621 24.6008 64.6266 22.9066 61.8361 21.7508C59.0456 20.5949 56.0548 20 53.0344 20L53.0344 31.7301C54.5143 31.7301 55.9798 32.0216 57.3472 32.588C58.7145 33.1543 59.9569 33.9845 61.0034 35.031C62.0499 36.0775 62.88 37.3199 63.4464 38.6872C64.0128 40.0545 64.3043 41.52 64.3043 43H76.0344Z" fill="#DBBB7F"/>
<path d="M53.0344 0C58.6812 6.73379e-08 64.2728 1.11223 69.4898 3.27318C74.7068 5.43413 79.447 8.60149 83.44 12.5944C87.4329 16.5873 90.6002 21.3276 92.7612 26.5446C94.9221 31.7616 96.0344 37.3532 96.0344 43L83.1733 43C83.1733 39.0421 82.3937 35.123 80.8791 31.4663C79.3645 27.8097 77.1445 24.4872 74.3458 21.6885C71.5472 18.8899 68.2247 16.6699 64.568 15.1552C60.9114 13.6406 56.9923 12.8611 53.0344 12.8611V0Z" fill="#DBBB7F"/>
</g>
<defs>
<radialGradient id="paint0_angular_1852_4762" cx="0" cy="0" r="1" gradientUnits="userSpaceOnUse" gradientTransform="translate(48.0344 48) rotate(90) scale(48)">
<stop offset="0.5" stop-color="#4B2996"/>
<stop offset="0.749617" stop-color="#753677"/>
</radialGradient>
<clipPath id="clip0_1852_4762">
<rect width="96" height="96" fill="white" transform="translate(0.0343628)"/>
</clipPath>
</defs>
</svg>
