<svg width="665" height="226" viewBox="0 0 665 226" fill="none" xmlns="http://www.w3.org/2000/svg">
<g clip-path="url(#clip0_1852_4768)">
<path d="M333.034 0C323.541 -1.13209e-07 314.261 2.81515 306.367 8.08946C298.473 13.3638 292.321 20.8603 288.688 29.6312C285.055 38.402 284.105 48.0532 285.957 57.3643C287.809 66.6754 292.38 75.2282 299.093 81.9411C305.806 88.654 314.359 93.2256 323.67 95.0777C332.981 96.9298 342.632 95.9792 351.403 92.3462C360.174 88.7132 367.671 82.5609 372.945 74.6674C378.219 66.7738 381.034 57.4935 381.034 48H349.826C349.826 51.3211 348.841 54.5676 346.996 57.329C345.151 60.0904 342.529 62.2426 339.46 63.5136C336.392 64.7845 333.016 65.117 329.758 64.4691C326.501 63.8212 323.509 62.2219 321.161 59.8736C318.812 57.5252 317.213 54.5332 316.565 51.2759C315.917 48.0186 316.25 44.6424 317.521 41.5741C318.792 38.5058 320.944 35.8833 323.705 34.0381C326.467 32.193 329.713 31.2082 333.034 31.2082L333.034 0Z" fill="url(#paint0_linear_1852_4768)"/>
<circle cx="333.034" cy="48" r="8" fill="#DBBB7F"/>
<path d="M361.034 43C361.034 39.9796 360.439 36.9888 359.284 34.1983C358.128 31.4078 356.434 28.8723 354.298 26.7365C352.162 24.6008 349.627 22.9066 346.836 21.7508C344.046 20.5949 341.055 20 338.034 20L338.034 31.7301C339.514 31.7301 340.98 32.0216 342.347 32.588C343.715 33.1543 344.957 33.9845 346.003 35.031C347.05 36.0775 347.88 37.3199 348.446 38.6872C349.013 40.0545 349.304 41.52 349.304 43H361.034Z" fill="#DBBB7F"/>
<path d="M338.034 0C343.681 6.73379e-08 349.273 1.11223 354.49 3.27318C359.707 5.43413 364.447 8.60149 368.44 12.5944C372.433 16.5873 375.6 21.3276 377.761 26.5446C379.922 31.7616 381.034 37.3532 381.034 43L368.173 43C368.173 39.0421 367.394 35.123 365.879 31.4663C364.364 27.8097 362.144 24.4872 359.346 21.6885C356.547 18.8899 353.225 16.6699 349.568 15.1552C345.911 13.6406 341.992 12.8611 338.034 12.8611V0Z" fill="#DBBB7F"/>
</g>
<mask id="path-5-outside-1_1852_4768" maskUnits="userSpaceOnUse" x="0" y="126" width="665" height="100" fill="black">
<rect fill="white" y="126" width="665" height="100"/>
<path d="M75.3 204.1H66.2L54.9 179.6H24.7L13.5 204.1H4L38.6 128H41.2L75.3 204.1ZM51 170.9L39.9 146.2L28.7 170.9H51Z"/>
<path d="M130.623 204.1H122.323V195.9C116.923 202.3 110.523 205.5 103.123 205.5C99.1901 205.5 95.6234 204.5 92.4234 202.5C89.2234 200.433 86.8234 197.633 85.2234 194.1C83.6234 190.5 82.8234 185 82.8234 177.6V149.6H91.0234V175.6C91.0234 181.6 91.2901 185.7 91.8234 187.9C92.4234 190.033 93.2568 191.867 94.3234 193.4C95.4568 194.867 96.8568 195.967 98.5234 196.7C100.257 197.433 102.323 197.8 104.723 197.8C107.19 197.8 109.59 197.2 111.923 196C114.257 194.8 116.257 193.133 117.923 191C119.59 188.867 120.723 186.6 121.323 184.2C121.99 181.8 122.323 177 122.323 169.8V149.6H130.623V204.1Z"/>
<path d="M169.563 156.8H158.763V195C158.763 196.4 158.963 197.267 159.363 197.6C159.763 197.867 160.763 198 162.363 198H167.163V205.1C163.963 205.633 161.53 205.9 159.863 205.9C156.663 205.9 154.297 205.133 152.763 203.6C151.23 202 150.463 199.5 150.463 196.1V156.8H141.063V149.6H150.463V129.1H158.763V149.6H169.563V156.8Z"/>
<path d="M204.25 148.2C212.117 148.2 218.783 151.033 224.25 156.7C229.783 162.367 232.55 169.167 232.55 177.1C232.55 185.033 229.817 191.833 224.35 197.5C218.95 203.1 212.25 205.9 204.25 205.9C196.25 205.9 189.517 203.1 184.05 197.5C178.583 191.833 175.85 185.033 175.85 177.1C175.85 169.167 178.583 162.367 184.05 156.7C189.583 151.033 196.317 148.2 204.25 148.2ZM204.25 198C209.783 198 214.483 196 218.35 192C222.283 187.933 224.25 183.067 224.25 177.4C224.25 171.667 222.25 166.733 218.25 162.6C214.317 158.4 209.617 156.3 204.15 156.3C198.75 156.3 194.083 158.4 190.15 162.6C186.217 166.733 184.25 171.667 184.25 177.4C184.25 183.133 186.15 188 189.95 192C193.75 196 198.517 198 204.25 198Z"/>
<path d="M275.577 164C280.244 165.733 283.744 168.2 286.077 171.4C288.477 174.6 289.677 178.4 289.677 182.8C289.677 188.933 287.444 194.033 282.977 198.1C278.577 202.1 272.811 204.1 265.677 204.1H245.177V130.9H260.077C267.811 130.9 273.677 132.5 277.677 135.7C281.744 138.833 283.777 143.333 283.777 149.2C283.777 155.6 281.044 160.533 275.577 164ZM253.677 160.9H257.077C263.077 160.9 267.544 159.967 270.477 158.1C273.477 156.233 274.977 153.267 274.977 149.2C274.977 142.6 270.411 139.3 261.277 139.3H253.677V160.9ZM253.677 195.7H261.877C267.011 195.7 270.744 195.2 273.077 194.2C275.411 193.2 277.277 191.667 278.677 189.6C280.077 187.533 280.777 185.433 280.777 183.3C280.777 181.167 280.344 179.3 279.477 177.7C278.677 176.033 277.444 174.567 275.777 173.3C274.177 172.033 272.177 171.1 269.777 170.5C267.444 169.833 263.177 169.5 256.977 169.5H253.677V195.7Z"/>
<path d="M355.599 204.1H347.499V196.1C341.566 202.633 334.733 205.9 326.999 205.9C319.266 205.9 312.633 203.067 307.099 197.4C301.633 191.667 298.899 184.867 298.899 177C298.899 169.067 301.666 162.3 307.199 156.7C312.733 151.033 319.466 148.2 327.399 148.2C335.399 148.2 342.099 151.433 347.499 157.9V149.6H355.599V204.1ZM327.599 198.2C333.133 198.2 337.899 196.2 341.899 192.2C345.899 188.2 347.899 183.233 347.899 177.3C347.899 171.3 345.933 166.3 341.999 162.3C338.066 158.233 333.233 156.2 327.499 156.2C321.833 156.2 317.033 158.3 313.099 162.5C309.166 166.633 307.199 171.533 307.199 177.2C307.199 182.867 309.199 187.8 313.199 192C317.199 196.133 321.999 198.2 327.599 198.2Z"/>
<path d="M417.361 204.1H409.161V178.1C409.161 172.1 408.861 168.033 408.261 165.9C407.728 163.7 406.894 161.867 405.761 160.4C404.694 158.867 403.294 157.733 401.561 157C399.894 156.267 397.828 155.9 395.361 155.9C392.961 155.9 390.594 156.5 388.261 157.7C385.928 158.9 383.928 160.567 382.261 162.7C380.594 164.833 379.428 167.1 378.761 169.5C378.161 171.9 377.861 176.7 377.861 183.9V204.1H369.561V149.6H377.861V157.8C383.261 151.4 389.661 148.2 397.061 148.2C400.994 148.2 404.561 149.233 407.761 151.3C410.961 153.3 413.361 156.1 414.961 159.7C416.561 163.233 417.361 168.7 417.361 176.1V204.1Z"/>
<path d="M485.096 191.3C485.096 198.5 484.463 203.833 483.196 207.3C481.996 210.767 480.129 213.7 477.596 216.1C475.129 218.5 472.129 220.3 468.596 221.5C465.129 222.767 461.296 223.4 457.096 223.4C442.896 223.4 433.429 217.4 428.696 205.4H437.496C441.363 212.333 447.796 215.8 456.796 215.8C460.929 215.8 464.629 215 467.896 213.4C471.163 211.8 473.463 209.667 474.796 207C476.129 204.333 476.796 200.233 476.796 194.7V194.2C474.196 197.133 471.063 199.367 467.396 200.9C463.729 202.433 459.929 203.2 455.996 203.2C448.129 203.2 441.529 200.5 436.196 195.1C430.929 189.7 428.329 183.333 428.396 176C428.329 168.333 431.096 161.8 436.696 156.4C442.296 150.933 448.929 148.2 456.596 148.2C464.329 148.2 471.063 151.333 476.796 157.6V149.6H485.096V191.3ZM477.096 176C477.096 170.267 475.163 165.533 471.296 161.8C467.496 158.067 462.829 156.2 457.296 156.2C451.429 156.2 446.496 158.233 442.496 162.3C438.563 166.3 436.596 170.967 436.596 176.3C436.596 181.633 438.496 186.167 442.296 189.9C446.096 193.567 450.963 195.4 456.896 195.4C462.829 195.4 467.663 193.6 471.396 190C475.196 186.333 477.096 181.667 477.096 176Z"/>
<path d="M544.881 204.1H536.581V195.9C531.181 202.3 524.781 205.5 517.381 205.5C513.448 205.5 509.881 204.5 506.681 202.5C503.481 200.433 501.081 197.633 499.481 194.1C497.881 190.5 497.081 185 497.081 177.6V149.6H505.281V175.6C505.281 181.6 505.548 185.7 506.081 187.9C506.681 190.033 507.515 191.867 508.581 193.4C509.715 194.867 511.115 195.967 512.781 196.7C514.515 197.433 516.581 197.8 518.981 197.8C521.448 197.8 523.848 197.2 526.181 196C528.515 194.8 530.515 193.133 532.181 191C533.848 188.867 534.981 186.6 535.581 184.2C536.248 181.8 536.581 177 536.581 169.8V149.6H544.881V204.1Z"/>
<path d="M639.521 204.1H631.121V174.4C631.121 169.667 630.821 166.2 630.221 164C629.688 161.8 628.454 159.967 626.521 158.5C624.654 156.967 622.154 156.2 619.021 156.2C615.954 156.2 613.054 157.2 610.321 159.2C607.588 161.2 605.688 163.933 604.621 167.4C603.554 170.8 603.021 175.867 603.021 182.6V204.1H594.921V176.2C594.921 170.733 594.621 166.8 594.021 164.4C593.488 162 592.254 160.033 590.321 158.5C588.388 156.967 585.954 156.2 583.021 156.2C580.088 156.2 577.288 157.133 574.621 159C572.021 160.8 570.088 163.2 568.821 166.2C567.554 169.133 566.921 174.033 566.921 180.9V204.1H558.721V149.6H566.921V157.3C571.588 151.233 577.421 148.2 584.421 148.2C588.221 148.2 591.654 149.233 594.721 151.3C597.854 153.3 600.088 156.167 601.421 159.9C603.688 156.1 606.521 153.2 609.921 151.2C613.321 149.2 616.921 148.2 620.721 148.2C625.921 148.2 630.354 150.033 634.021 153.7C637.688 157.367 639.521 164.267 639.521 174.4V204.1Z"/>
<path d="M655.669 129.1C657.469 129.1 658.969 129.733 660.169 131C661.435 132.2 662.069 133.7 662.069 135.5C662.069 137.233 661.435 138.733 660.169 140C658.969 141.2 657.469 141.8 655.669 141.8C653.935 141.8 652.435 141.167 651.169 139.9C649.969 138.633 649.369 137.167 649.369 135.5C649.369 133.767 649.969 132.267 651.169 131C652.435 129.733 653.935 129.1 655.669 129.1ZM659.869 204.1H651.569V149.6H659.869V204.1Z"/>
</mask>
<path d="M75.3 204.1H66.2L54.9 179.6H24.7L13.5 204.1H4L38.6 128H41.2L75.3 204.1ZM51 170.9L39.9 146.2L28.7 170.9H51Z" fill="url(#paint1_linear_1852_4768)"/>
<path d="M130.623 204.1H122.323V195.9C116.923 202.3 110.523 205.5 103.123 205.5C99.1901 205.5 95.6234 204.5 92.4234 202.5C89.2234 200.433 86.8234 197.633 85.2234 194.1C83.6234 190.5 82.8234 185 82.8234 177.6V149.6H91.0234V175.6C91.0234 181.6 91.2901 185.7 91.8234 187.9C92.4234 190.033 93.2568 191.867 94.3234 193.4C95.4568 194.867 96.8568 195.967 98.5234 196.7C100.257 197.433 102.323 197.8 104.723 197.8C107.19 197.8 109.59 197.2 111.923 196C114.257 194.8 116.257 193.133 117.923 191C119.59 188.867 120.723 186.6 121.323 184.2C121.99 181.8 122.323 177 122.323 169.8V149.6H130.623V204.1Z" fill="url(#paint2_linear_1852_4768)"/>
<path d="M169.563 156.8H158.763V195C158.763 196.4 158.963 197.267 159.363 197.6C159.763 197.867 160.763 198 162.363 198H167.163V205.1C163.963 205.633 161.53 205.9 159.863 205.9C156.663 205.9 154.297 205.133 152.763 203.6C151.23 202 150.463 199.5 150.463 196.1V156.8H141.063V149.6H150.463V129.1H158.763V149.6H169.563V156.8Z" fill="url(#paint3_linear_1852_4768)"/>
<path d="M204.25 148.2C212.117 148.2 218.783 151.033 224.25 156.7C229.783 162.367 232.55 169.167 232.55 177.1C232.55 185.033 229.817 191.833 224.35 197.5C218.95 203.1 212.25 205.9 204.25 205.9C196.25 205.9 189.517 203.1 184.05 197.5C178.583 191.833 175.85 185.033 175.85 177.1C175.85 169.167 178.583 162.367 184.05 156.7C189.583 151.033 196.317 148.2 204.25 148.2ZM204.25 198C209.783 198 214.483 196 218.35 192C222.283 187.933 224.25 183.067 224.25 177.4C224.25 171.667 222.25 166.733 218.25 162.6C214.317 158.4 209.617 156.3 204.15 156.3C198.75 156.3 194.083 158.4 190.15 162.6C186.217 166.733 184.25 171.667 184.25 177.4C184.25 183.133 186.15 188 189.95 192C193.75 196 198.517 198 204.25 198Z" fill="url(#paint4_linear_1852_4768)"/>
<path d="M275.577 164C280.244 165.733 283.744 168.2 286.077 171.4C288.477 174.6 289.677 178.4 289.677 182.8C289.677 188.933 287.444 194.033 282.977 198.1C278.577 202.1 272.811 204.1 265.677 204.1H245.177V130.9H260.077C267.811 130.9 273.677 132.5 277.677 135.7C281.744 138.833 283.777 143.333 283.777 149.2C283.777 155.6 281.044 160.533 275.577 164ZM253.677 160.9H257.077C263.077 160.9 267.544 159.967 270.477 158.1C273.477 156.233 274.977 153.267 274.977 149.2C274.977 142.6 270.411 139.3 261.277 139.3H253.677V160.9ZM253.677 195.7H261.877C267.011 195.7 270.744 195.2 273.077 194.2C275.411 193.2 277.277 191.667 278.677 189.6C280.077 187.533 280.777 185.433 280.777 183.3C280.777 181.167 280.344 179.3 279.477 177.7C278.677 176.033 277.444 174.567 275.777 173.3C274.177 172.033 272.177 171.1 269.777 170.5C267.444 169.833 263.177 169.5 256.977 169.5H253.677V195.7Z" fill="url(#paint5_linear_1852_4768)"/>
<path d="M355.599 204.1H347.499V196.1C341.566 202.633 334.733 205.9 326.999 205.9C319.266 205.9 312.633 203.067 307.099 197.4C301.633 191.667 298.899 184.867 298.899 177C298.899 169.067 301.666 162.3 307.199 156.7C312.733 151.033 319.466 148.2 327.399 148.2C335.399 148.2 342.099 151.433 347.499 157.9V149.6H355.599V204.1ZM327.599 198.2C333.133 198.2 337.899 196.2 341.899 192.2C345.899 188.2 347.899 183.233 347.899 177.3C347.899 171.3 345.933 166.3 341.999 162.3C338.066 158.233 333.233 156.2 327.499 156.2C321.833 156.2 317.033 158.3 313.099 162.5C309.166 166.633 307.199 171.533 307.199 177.2C307.199 182.867 309.199 187.8 313.199 192C317.199 196.133 321.999 198.2 327.599 198.2Z" fill="url(#paint6_linear_1852_4768)"/>
<path d="M417.361 204.1H409.161V178.1C409.161 172.1 408.861 168.033 408.261 165.9C407.728 163.7 406.894 161.867 405.761 160.4C404.694 158.867 403.294 157.733 401.561 157C399.894 156.267 397.828 155.9 395.361 155.9C392.961 155.9 390.594 156.5 388.261 157.7C385.928 158.9 383.928 160.567 382.261 162.7C380.594 164.833 379.428 167.1 378.761 169.5C378.161 171.9 377.861 176.7 377.861 183.9V204.1H369.561V149.6H377.861V157.8C383.261 151.4 389.661 148.2 397.061 148.2C400.994 148.2 404.561 149.233 407.761 151.3C410.961 153.3 413.361 156.1 414.961 159.7C416.561 163.233 417.361 168.7 417.361 176.1V204.1Z" fill="url(#paint7_linear_1852_4768)"/>
<path d="M485.096 191.3C485.096 198.5 484.463 203.833 483.196 207.3C481.996 210.767 480.129 213.7 477.596 216.1C475.129 218.5 472.129 220.3 468.596 221.5C465.129 222.767 461.296 223.4 457.096 223.4C442.896 223.4 433.429 217.4 428.696 205.4H437.496C441.363 212.333 447.796 215.8 456.796 215.8C460.929 215.8 464.629 215 467.896 213.4C471.163 211.8 473.463 209.667 474.796 207C476.129 204.333 476.796 200.233 476.796 194.7V194.2C474.196 197.133 471.063 199.367 467.396 200.9C463.729 202.433 459.929 203.2 455.996 203.2C448.129 203.2 441.529 200.5 436.196 195.1C430.929 189.7 428.329 183.333 428.396 176C428.329 168.333 431.096 161.8 436.696 156.4C442.296 150.933 448.929 148.2 456.596 148.2C464.329 148.2 471.063 151.333 476.796 157.6V149.6H485.096V191.3ZM477.096 176C477.096 170.267 475.163 165.533 471.296 161.8C467.496 158.067 462.829 156.2 457.296 156.2C451.429 156.2 446.496 158.233 442.496 162.3C438.563 166.3 436.596 170.967 436.596 176.3C436.596 181.633 438.496 186.167 442.296 189.9C446.096 193.567 450.963 195.4 456.896 195.4C462.829 195.4 467.663 193.6 471.396 190C475.196 186.333 477.096 181.667 477.096 176Z" fill="url(#paint8_linear_1852_4768)"/>
<path d="M544.881 204.1H536.581V195.9C531.181 202.3 524.781 205.5 517.381 205.5C513.448 205.5 509.881 204.5 506.681 202.5C503.481 200.433 501.081 197.633 499.481 194.1C497.881 190.5 497.081 185 497.081 177.6V149.6H505.281V175.6C505.281 181.6 505.548 185.7 506.081 187.9C506.681 190.033 507.515 191.867 508.581 193.4C509.715 194.867 511.115 195.967 512.781 196.7C514.515 197.433 516.581 197.8 518.981 197.8C521.448 197.8 523.848 197.2 526.181 196C528.515 194.8 530.515 193.133 532.181 191C533.848 188.867 534.981 186.6 535.581 184.2C536.248 181.8 536.581 177 536.581 169.8V149.6H544.881V204.1Z" fill="url(#paint9_linear_1852_4768)"/>
<path d="M639.521 204.1H631.121V174.4C631.121 169.667 630.821 166.2 630.221 164C629.688 161.8 628.454 159.967 626.521 158.5C624.654 156.967 622.154 156.2 619.021 156.2C615.954 156.2 613.054 157.2 610.321 159.2C607.588 161.2 605.688 163.933 604.621 167.4C603.554 170.8 603.021 175.867 603.021 182.6V204.1H594.921V176.2C594.921 170.733 594.621 166.8 594.021 164.4C593.488 162 592.254 160.033 590.321 158.5C588.388 156.967 585.954 156.2 583.021 156.2C580.088 156.2 577.288 157.133 574.621 159C572.021 160.8 570.088 163.2 568.821 166.2C567.554 169.133 566.921 174.033 566.921 180.9V204.1H558.721V149.6H566.921V157.3C571.588 151.233 577.421 148.2 584.421 148.2C588.221 148.2 591.654 149.233 594.721 151.3C597.854 153.3 600.088 156.167 601.421 159.9C603.688 156.1 606.521 153.2 609.921 151.2C613.321 149.2 616.921 148.2 620.721 148.2C625.921 148.2 630.354 150.033 634.021 153.7C637.688 157.367 639.521 164.267 639.521 174.4V204.1Z" fill="url(#paint10_linear_1852_4768)"/>
<path d="M655.669 129.1C657.469 129.1 658.969 129.733 660.169 131C661.435 132.2 662.069 133.7 662.069 135.5C662.069 137.233 661.435 138.733 660.169 140C658.969 141.2 657.469 141.8 655.669 141.8C653.935 141.8 652.435 141.167 651.169 139.9C649.969 138.633 649.369 137.167 649.369 135.5C649.369 133.767 649.969 132.267 651.169 131C652.435 129.733 653.935 129.1 655.669 129.1ZM659.869 204.1H651.569V149.6H659.869V204.1Z" fill="url(#paint11_linear_1852_4768)"/>
<path d="M75.3 204.1H66.2L54.9 179.6H24.7L13.5 204.1H4L38.6 128H41.2L75.3 204.1ZM51 170.9L39.9 146.2L28.7 170.9H51Z" stroke="url(#paint12_linear_1852_4768)" stroke-width="4" mask="url(#path-5-outside-1_1852_4768)"/>
<path d="M130.623 204.1H122.323V195.9C116.923 202.3 110.523 205.5 103.123 205.5C99.1901 205.5 95.6234 204.5 92.4234 202.5C89.2234 200.433 86.8234 197.633 85.2234 194.1C83.6234 190.5 82.8234 185 82.8234 177.6V149.6H91.0234V175.6C91.0234 181.6 91.2901 185.7 91.8234 187.9C92.4234 190.033 93.2568 191.867 94.3234 193.4C95.4568 194.867 96.8568 195.967 98.5234 196.7C100.257 197.433 102.323 197.8 104.723 197.8C107.19 197.8 109.59 197.2 111.923 196C114.257 194.8 116.257 193.133 117.923 191C119.59 188.867 120.723 186.6 121.323 184.2C121.99 181.8 122.323 177 122.323 169.8V149.6H130.623V204.1Z" stroke="url(#paint13_linear_1852_4768)" stroke-width="4" mask="url(#path-5-outside-1_1852_4768)"/>
<path d="M169.563 156.8H158.763V195C158.763 196.4 158.963 197.267 159.363 197.6C159.763 197.867 160.763 198 162.363 198H167.163V205.1C163.963 205.633 161.53 205.9 159.863 205.9C156.663 205.9 154.297 205.133 152.763 203.6C151.23 202 150.463 199.5 150.463 196.1V156.8H141.063V149.6H150.463V129.1H158.763V149.6H169.563V156.8Z" stroke="url(#paint14_linear_1852_4768)" stroke-width="4" mask="url(#path-5-outside-1_1852_4768)"/>
<path d="M204.25 148.2C212.117 148.2 218.783 151.033 224.25 156.7C229.783 162.367 232.55 169.167 232.55 177.1C232.55 185.033 229.817 191.833 224.35 197.5C218.95 203.1 212.25 205.9 204.25 205.9C196.25 205.9 189.517 203.1 184.05 197.5C178.583 191.833 175.85 185.033 175.85 177.1C175.85 169.167 178.583 162.367 184.05 156.7C189.583 151.033 196.317 148.2 204.25 148.2ZM204.25 198C209.783 198 214.483 196 218.35 192C222.283 187.933 224.25 183.067 224.25 177.4C224.25 171.667 222.25 166.733 218.25 162.6C214.317 158.4 209.617 156.3 204.15 156.3C198.75 156.3 194.083 158.4 190.15 162.6C186.217 166.733 184.25 171.667 184.25 177.4C184.25 183.133 186.15 188 189.95 192C193.75 196 198.517 198 204.25 198Z" stroke="url(#paint15_linear_1852_4768)" stroke-width="4" mask="url(#path-5-outside-1_1852_4768)"/>
<path d="M275.577 164C280.244 165.733 283.744 168.2 286.077 171.4C288.477 174.6 289.677 178.4 289.677 182.8C289.677 188.933 287.444 194.033 282.977 198.1C278.577 202.1 272.811 204.1 265.677 204.1H245.177V130.9H260.077C267.811 130.9 273.677 132.5 277.677 135.7C281.744 138.833 283.777 143.333 283.777 149.2C283.777 155.6 281.044 160.533 275.577 164ZM253.677 160.9H257.077C263.077 160.9 267.544 159.967 270.477 158.1C273.477 156.233 274.977 153.267 274.977 149.2C274.977 142.6 270.411 139.3 261.277 139.3H253.677V160.9ZM253.677 195.7H261.877C267.011 195.7 270.744 195.2 273.077 194.2C275.411 193.2 277.277 191.667 278.677 189.6C280.077 187.533 280.777 185.433 280.777 183.3C280.777 181.167 280.344 179.3 279.477 177.7C278.677 176.033 277.444 174.567 275.777 173.3C274.177 172.033 272.177 171.1 269.777 170.5C267.444 169.833 263.177 169.5 256.977 169.5H253.677V195.7Z" stroke="url(#paint16_linear_1852_4768)" stroke-width="4" mask="url(#path-5-outside-1_1852_4768)"/>
<path d="M355.599 204.1H347.499V196.1C341.566 202.633 334.733 205.9 326.999 205.9C319.266 205.9 312.633 203.067 307.099 197.4C301.633 191.667 298.899 184.867 298.899 177C298.899 169.067 301.666 162.3 307.199 156.7C312.733 151.033 319.466 148.2 327.399 148.2C335.399 148.2 342.099 151.433 347.499 157.9V149.6H355.599V204.1ZM327.599 198.2C333.133 198.2 337.899 196.2 341.899 192.2C345.899 188.2 347.899 183.233 347.899 177.3C347.899 171.3 345.933 166.3 341.999 162.3C338.066 158.233 333.233 156.2 327.499 156.2C321.833 156.2 317.033 158.3 313.099 162.5C309.166 166.633 307.199 171.533 307.199 177.2C307.199 182.867 309.199 187.8 313.199 192C317.199 196.133 321.999 198.2 327.599 198.2Z" stroke="url(#paint17_linear_1852_4768)" stroke-width="4" mask="url(#path-5-outside-1_1852_4768)"/>
<path d="M417.361 204.1H409.161V178.1C409.161 172.1 408.861 168.033 408.261 165.9C407.728 163.7 406.894 161.867 405.761 160.4C404.694 158.867 403.294 157.733 401.561 157C399.894 156.267 397.828 155.9 395.361 155.9C392.961 155.9 390.594 156.5 388.261 157.7C385.928 158.9 383.928 160.567 382.261 162.7C380.594 164.833 379.428 167.1 378.761 169.5C378.161 171.9 377.861 176.7 377.861 183.9V204.1H369.561V149.6H377.861V157.8C383.261 151.4 389.661 148.2 397.061 148.2C400.994 148.2 404.561 149.233 407.761 151.3C410.961 153.3 413.361 156.1 414.961 159.7C416.561 163.233 417.361 168.7 417.361 176.1V204.1Z" stroke="url(#paint18_linear_1852_4768)" stroke-width="4" mask="url(#path-5-outside-1_1852_4768)"/>
<path d="M485.096 191.3C485.096 198.5 484.463 203.833 483.196 207.3C481.996 210.767 480.129 213.7 477.596 216.1C475.129 218.5 472.129 220.3 468.596 221.5C465.129 222.767 461.296 223.4 457.096 223.4C442.896 223.4 433.429 217.4 428.696 205.4H437.496C441.363 212.333 447.796 215.8 456.796 215.8C460.929 215.8 464.629 215 467.896 213.4C471.163 211.8 473.463 209.667 474.796 207C476.129 204.333 476.796 200.233 476.796 194.7V194.2C474.196 197.133 471.063 199.367 467.396 200.9C463.729 202.433 459.929 203.2 455.996 203.2C448.129 203.2 441.529 200.5 436.196 195.1C430.929 189.7 428.329 183.333 428.396 176C428.329 168.333 431.096 161.8 436.696 156.4C442.296 150.933 448.929 148.2 456.596 148.2C464.329 148.2 471.063 151.333 476.796 157.6V149.6H485.096V191.3ZM477.096 176C477.096 170.267 475.163 165.533 471.296 161.8C467.496 158.067 462.829 156.2 457.296 156.2C451.429 156.2 446.496 158.233 442.496 162.3C438.563 166.3 436.596 170.967 436.596 176.3C436.596 181.633 438.496 186.167 442.296 189.9C446.096 193.567 450.963 195.4 456.896 195.4C462.829 195.4 467.663 193.6 471.396 190C475.196 186.333 477.096 181.667 477.096 176Z" stroke="url(#paint19_linear_1852_4768)" stroke-width="4" mask="url(#path-5-outside-1_1852_4768)"/>
<path d="M544.881 204.1H536.581V195.9C531.181 202.3 524.781 205.5 517.381 205.5C513.448 205.5 509.881 204.5 506.681 202.5C503.481 200.433 501.081 197.633 499.481 194.1C497.881 190.5 497.081 185 497.081 177.6V149.6H505.281V175.6C505.281 181.6 505.548 185.7 506.081 187.9C506.681 190.033 507.515 191.867 508.581 193.4C509.715 194.867 511.115 195.967 512.781 196.7C514.515 197.433 516.581 197.8 518.981 197.8C521.448 197.8 523.848 197.2 526.181 196C528.515 194.8 530.515 193.133 532.181 191C533.848 188.867 534.981 186.6 535.581 184.2C536.248 181.8 536.581 177 536.581 169.8V149.6H544.881V204.1Z" stroke="url(#paint20_linear_1852_4768)" stroke-width="4" mask="url(#path-5-outside-1_1852_4768)"/>
<path d="M639.521 204.1H631.121V174.4C631.121 169.667 630.821 166.2 630.221 164C629.688 161.8 628.454 159.967 626.521 158.5C624.654 156.967 622.154 156.2 619.021 156.2C615.954 156.2 613.054 157.2 610.321 159.2C607.588 161.2 605.688 163.933 604.621 167.4C603.554 170.8 603.021 175.867 603.021 182.6V204.1H594.921V176.2C594.921 170.733 594.621 166.8 594.021 164.4C593.488 162 592.254 160.033 590.321 158.5C588.388 156.967 585.954 156.2 583.021 156.2C580.088 156.2 577.288 157.133 574.621 159C572.021 160.8 570.088 163.2 568.821 166.2C567.554 169.133 566.921 174.033 566.921 180.9V204.1H558.721V149.6H566.921V157.3C571.588 151.233 577.421 148.2 584.421 148.2C588.221 148.2 591.654 149.233 594.721 151.3C597.854 153.3 600.088 156.167 601.421 159.9C603.688 156.1 606.521 153.2 609.921 151.2C613.321 149.2 616.921 148.2 620.721 148.2C625.921 148.2 630.354 150.033 634.021 153.7C637.688 157.367 639.521 164.267 639.521 174.4V204.1Z" stroke="url(#paint21_linear_1852_4768)" stroke-width="4" mask="url(#path-5-outside-1_1852_4768)"/>
<path d="M655.669 129.1C657.469 129.1 658.969 129.733 660.169 131C661.435 132.2 662.069 133.7 662.069 135.5C662.069 137.233 661.435 138.733 660.169 140C658.969 141.2 657.469 141.8 655.669 141.8C653.935 141.8 652.435 141.167 651.169 139.9C649.969 138.633 649.369 137.167 649.369 135.5C649.369 133.767 649.969 132.267 651.169 131C652.435 129.733 653.935 129.1 655.669 129.1ZM659.869 204.1H651.569V149.6H659.869V204.1Z" stroke="url(#paint22_linear_1852_4768)" stroke-width="4" mask="url(#path-5-outside-1_1852_4768)"/>
<defs>
<linearGradient id="paint0_linear_1852_4768" x1="279.859" y1="12.075" x2="394.912" y2="66.8646" gradientUnits="userSpaceOnUse">
<stop stop-color="#441bd9"/>
<stop offset="1" stop-color="#B42FF1"/>
</linearGradient>
<linearGradient id="paint1_linear_1852_4768" x1="-31.474" y1="140" x2="50.585" y2="409.556" gradientUnits="userSpaceOnUse">
<stop stop-color="#441bd9"/>
<stop offset="1" stop-color="#B42FF1"/>
</linearGradient>
<linearGradient id="paint2_linear_1852_4768" x1="-31.474" y1="140" x2="50.585" y2="409.556" gradientUnits="userSpaceOnUse">
<stop stop-color="#441bd9"/>
<stop offset="1" stop-color="#B42FF1"/>
</linearGradient>
<linearGradient id="paint3_linear_1852_4768" x1="-31.474" y1="140" x2="50.585" y2="409.556" gradientUnits="userSpaceOnUse">
<stop stop-color="#441bd9"/>
<stop offset="1" stop-color="#B42FF1"/>
</linearGradient>
<linearGradient id="paint4_linear_1852_4768" x1="-31.474" y1="140" x2="50.585" y2="409.556" gradientUnits="userSpaceOnUse">
<stop stop-color="#441bd9"/>
<stop offset="1" stop-color="#B42FF1"/>
</linearGradient>
<linearGradient id="paint5_linear_1852_4768" x1="-31.474" y1="140" x2="50.585" y2="409.556" gradientUnits="userSpaceOnUse">
<stop stop-color="#441bd9"/>
<stop offset="1" stop-color="#B42FF1"/>
</linearGradient>
<linearGradient id="paint6_linear_1852_4768" x1="-31.474" y1="140" x2="50.585" y2="409.556" gradientUnits="userSpaceOnUse">
<stop stop-color="#441bd9"/>
<stop offset="1" stop-color="#B42FF1"/>
</linearGradient>
<linearGradient id="paint7_linear_1852_4768" x1="-31.474" y1="140" x2="50.585" y2="409.556" gradientUnits="userSpaceOnUse">
<stop stop-color="#441bd9"/>
<stop offset="1" stop-color="#B42FF1"/>
</linearGradient>
<linearGradient id="paint8_linear_1852_4768" x1="-31.474" y1="140" x2="50.585" y2="409.556" gradientUnits="userSpaceOnUse">
<stop stop-color="#441bd9"/>
<stop offset="1" stop-color="#B42FF1"/>
</linearGradient>
<linearGradient id="paint9_linear_1852_4768" x1="-31.474" y1="140" x2="50.585" y2="409.556" gradientUnits="userSpaceOnUse">
<stop stop-color="#441bd9"/>
<stop offset="1" stop-color="#B42FF1"/>
</linearGradient>
<linearGradient id="paint10_linear_1852_4768" x1="-31.474" y1="140" x2="50.585" y2="409.556" gradientUnits="userSpaceOnUse">
<stop stop-color="#441bd9"/>
<stop offset="1" stop-color="#B42FF1"/>
</linearGradient>
<linearGradient id="paint11_linear_1852_4768" x1="-31.474" y1="140" x2="50.585" y2="409.556" gradientUnits="userSpaceOnUse">
<stop stop-color="#441bd9"/>
<stop offset="1" stop-color="#B42FF1"/>
</linearGradient>
<linearGradient id="paint12_linear_1852_4768" x1="-31.474" y1="140" x2="50.585" y2="409.556" gradientUnits="userSpaceOnUse">
<stop stop-color="#441bd9"/>
<stop offset="1" stop-color="#B42FF1"/>
</linearGradient>
<linearGradient id="paint13_linear_1852_4768" x1="-31.474" y1="140" x2="50.585" y2="409.556" gradientUnits="userSpaceOnUse">
<stop stop-color="#441bd9"/>
<stop offset="1" stop-color="#B42FF1"/>
</linearGradient>
<linearGradient id="paint14_linear_1852_4768" x1="-31.474" y1="140" x2="50.585" y2="409.556" gradientUnits="userSpaceOnUse">
<stop stop-color="#441bd9"/>
<stop offset="1" stop-color="#B42FF1"/>
</linearGradient>
<linearGradient id="paint15_linear_1852_4768" x1="-31.474" y1="140" x2="50.585" y2="409.556" gradientUnits="userSpaceOnUse">
<stop stop-color="#441bd9"/>
<stop offset="1" stop-color="#B42FF1"/>
</linearGradient>
<linearGradient id="paint16_linear_1852_4768" x1="-31.474" y1="140" x2="50.585" y2="409.556" gradientUnits="userSpaceOnUse">
<stop stop-color="#441bd9"/>
<stop offset="1" stop-color="#B42FF1"/>
</linearGradient>
<linearGradient id="paint17_linear_1852_4768" x1="-31.474" y1="140" x2="50.585" y2="409.556" gradientUnits="userSpaceOnUse">
<stop stop-color="#441bd9"/>
<stop offset="1" stop-color="#B42FF1"/>
</linearGradient>
<linearGradient id="paint18_linear_1852_4768" x1="-31.474" y1="140" x2="50.585" y2="409.556" gradientUnits="userSpaceOnUse">
<stop stop-color="#441bd9"/>
<stop offset="1" stop-color="#B42FF1"/>
</linearGradient>
<linearGradient id="paint19_linear_1852_4768" x1="-31.474" y1="140" x2="50.585" y2="409.556" gradientUnits="userSpaceOnUse">
<stop stop-color="#441bd9"/>
<stop offset="1" stop-color="#B42FF1"/>
</linearGradient>
<linearGradient id="paint20_linear_1852_4768" x1="-31.474" y1="140" x2="50.585" y2="409.556" gradientUnits="userSpaceOnUse">
<stop stop-color="#441bd9"/>
<stop offset="1" stop-color="#B42FF1"/>
</linearGradient>
<linearGradient id="paint21_linear_1852_4768" x1="-31.474" y1="140" x2="50.585" y2="409.556" gradientUnits="userSpaceOnUse">
<stop stop-color="#441bd9"/>
<stop offset="1" stop-color="#B42FF1"/>
</linearGradient>
<linearGradient id="paint22_linear_1852_4768" x1="-31.474" y1="140" x2="50.585" y2="409.556" gradientUnits="userSpaceOnUse">
<stop stop-color="#441bd9"/>
<stop offset="1" stop-color="#B42FF1"/>
</linearGradient>
<clipPath id="clip0_1852_4768">
<rect width="96" height="96" fill="white" transform="translate(285.034)"/>
</clipPath>
</defs>
</svg>
