<svg width="663" height="231" viewBox="0 0 663 231" fill="none" xmlns="http://www.w3.org/2000/svg">
<g clip-path="url(#clip0_1852_4761)">
<path d="M331.5 0C322.006 -1.13209e-07 312.726 2.81515 304.833 8.08946C296.939 13.3638 290.787 20.8603 287.154 29.6312C283.521 38.4021 282.57 48.0532 284.422 57.3643C286.274 66.6754 290.846 75.2282 297.559 81.9411C304.272 88.654 312.825 93.2256 322.136 95.0777C331.447 96.9298 341.098 95.9792 349.869 92.3462C358.64 88.7132 366.136 82.5609 371.411 74.6674C376.685 66.7738 379.5 57.4935 379.5 48H348.292C348.292 51.3211 347.307 54.5676 345.462 57.329C343.617 60.0904 340.994 62.2426 337.926 63.5136C334.858 64.7845 331.481 65.117 328.224 64.4691C324.967 63.8212 321.975 62.222 319.626 59.8736C317.278 57.5252 315.679 54.5332 315.031 51.2759C314.383 48.0186 314.715 44.6424 315.986 41.5741C317.257 38.5058 319.41 35.8833 322.171 34.0382C324.932 32.193 328.179 31.2082 331.5 31.2082V0Z" fill="white"/>
<circle cx="331.5" cy="48" r="8" fill="#DBBB7F"/>
<path d="M359.5 43C359.5 39.9796 358.905 36.9888 357.749 34.1983C356.593 31.4078 354.899 28.8723 352.763 26.7365C350.628 24.6008 348.092 22.9066 345.302 21.7508C342.511 20.5949 339.52 20 336.5 20L336.5 31.7301C337.98 31.7301 339.445 32.0216 340.813 32.588C342.18 33.1543 343.423 33.9845 344.469 35.031C345.516 36.0775 346.346 37.3199 346.912 38.6872C347.478 40.0545 347.77 41.52 347.77 43H359.5Z" fill="#DBBB7F"/>
<path d="M336.5 0C342.147 6.73379e-08 347.738 1.11223 352.955 3.27318C358.172 5.43413 362.913 8.60149 366.906 12.5944C370.899 16.5873 374.066 21.3276 376.227 26.5446C378.388 31.7616 379.5 37.3532 379.5 43L366.639 43C366.639 39.0421 365.859 35.123 364.345 31.4663C362.83 27.8097 360.61 24.4872 357.811 21.6885C355.013 18.8899 351.69 16.6699 348.034 15.1552C344.377 13.6406 340.458 12.8611 336.5 12.8611V0Z" fill="#DBBB7F"/>
</g>
<path d="M72.6059 210H63.5059L52.2059 185.5H22.0059L10.8059 210H1.30586L35.9059 133.9H38.5059L72.6059 210ZM48.3059 176.8L37.2059 152.1L26.0059 176.8H48.3059ZM127.929 210H119.629V201.8C114.229 208.2 107.829 211.4 100.429 211.4C96.496 211.4 92.9293 210.4 89.7293 208.4C86.5293 206.333 84.1293 203.533 82.5293 200C80.9293 196.4 80.1293 190.9 80.1293 183.5V155.5H88.3293V181.5C88.3293 187.5 88.596 191.6 89.1293 193.8C89.7293 195.933 90.5626 197.767 91.6293 199.3C92.7626 200.767 94.1626 201.867 95.8293 202.6C97.5626 203.333 99.6293 203.7 102.029 203.7C104.496 203.7 106.896 203.1 109.229 201.9C111.563 200.7 113.563 199.033 115.229 196.9C116.896 194.767 118.029 192.5 118.629 190.1C119.296 187.7 119.629 182.9 119.629 175.7V155.5H127.929V210ZM166.869 162.7H156.069V200.9C156.069 202.3 156.269 203.167 156.669 203.5C157.069 203.767 158.069 203.9 159.669 203.9H164.469V211C161.269 211.533 158.836 211.8 157.169 211.8C153.969 211.8 151.602 211.033 150.069 209.5C148.536 207.9 147.769 205.4 147.769 202V162.7H138.369V155.5H147.769V135H156.069V155.5H166.869V162.7ZM201.556 154.1C209.423 154.1 216.089 156.933 221.556 162.6C227.089 168.267 229.856 175.067 229.856 183C229.856 190.933 227.123 197.733 221.656 203.4C216.256 209 209.556 211.8 201.556 211.8C193.556 211.8 186.823 209 181.356 203.4C175.889 197.733 173.156 190.933 173.156 183C173.156 175.067 175.889 168.267 181.356 162.6C186.889 156.933 193.623 154.1 201.556 154.1ZM201.556 203.9C207.089 203.9 211.789 201.9 215.656 197.9C219.589 193.833 221.556 188.967 221.556 183.3C221.556 177.567 219.556 172.633 215.556 168.5C211.623 164.3 206.923 162.2 201.456 162.2C196.056 162.2 191.389 164.3 187.456 168.5C183.523 172.633 181.556 177.567 181.556 183.3C181.556 189.033 183.456 193.9 187.256 197.9C191.056 201.9 195.823 203.9 201.556 203.9ZM272.883 169.9C277.55 171.633 281.05 174.1 283.383 177.3C285.783 180.5 286.983 184.3 286.983 188.7C286.983 194.833 284.75 199.933 280.283 204C275.883 208 270.117 210 262.983 210H242.483V136.8H257.383C265.117 136.8 270.983 138.4 274.983 141.6C279.05 144.733 281.083 149.233 281.083 155.1C281.083 161.5 278.35 166.433 272.883 169.9ZM250.983 166.8H254.383C260.383 166.8 264.85 165.867 267.783 164C270.783 162.133 272.283 159.167 272.283 155.1C272.283 148.5 267.717 145.2 258.583 145.2H250.983V166.8ZM250.983 201.6H259.183C264.317 201.6 268.05 201.1 270.383 200.1C272.717 199.1 274.583 197.567 275.983 195.5C277.383 193.433 278.083 191.333 278.083 189.2C278.083 187.067 277.65 185.2 276.783 183.6C275.983 181.933 274.75 180.467 273.083 179.2C271.483 177.933 269.483 177 267.083 176.4C264.75 175.733 260.483 175.4 254.283 175.4H250.983V201.6ZM352.905 210H344.805V202C338.872 208.533 332.038 211.8 324.305 211.8C316.572 211.8 309.938 208.967 304.405 203.3C298.938 197.567 296.205 190.767 296.205 182.9C296.205 174.967 298.972 168.2 304.505 162.6C310.038 156.933 316.772 154.1 324.705 154.1C332.705 154.1 339.405 157.333 344.805 163.8V155.5H352.905V210ZM324.905 204.1C330.438 204.1 335.205 202.1 339.205 198.1C343.205 194.1 345.205 189.133 345.205 183.2C345.205 177.2 343.238 172.2 339.305 168.2C335.372 164.133 330.538 162.1 324.805 162.1C319.138 162.1 314.338 164.2 310.405 168.4C306.472 172.533 304.505 177.433 304.505 183.1C304.505 188.767 306.505 193.7 310.505 197.9C314.505 202.033 319.305 204.1 324.905 204.1ZM414.667 210H406.467V184C406.467 178 406.167 173.933 405.567 171.8C405.033 169.6 404.2 167.767 403.067 166.3C402 164.767 400.6 163.633 398.867 162.9C397.2 162.167 395.133 161.8 392.667 161.8C390.267 161.8 387.9 162.4 385.567 163.6C383.233 164.8 381.233 166.467 379.567 168.6C377.9 170.733 376.733 173 376.067 175.4C375.467 177.8 375.167 182.6 375.167 189.8V210H366.867V155.5H375.167V163.7C380.567 157.3 386.967 154.1 394.367 154.1C398.3 154.1 401.867 155.133 405.067 157.2C408.267 159.2 410.667 162 412.267 165.6C413.867 169.133 414.667 174.6 414.667 182V210ZM482.402 197.2C482.402 204.4 481.769 209.733 480.502 213.2C479.302 216.667 477.435 219.6 474.902 222C472.435 224.4 469.435 226.2 465.902 227.4C462.435 228.667 458.602 229.3 454.402 229.3C440.202 229.3 430.735 223.3 426.002 211.3H434.802C438.669 218.233 445.102 221.7 454.102 221.7C458.235 221.7 461.935 220.9 465.202 219.3C468.469 217.7 470.769 215.567 472.102 212.9C473.435 210.233 474.102 206.133 474.102 200.6V200.1C471.502 203.033 468.369 205.267 464.702 206.8C461.035 208.333 457.235 209.1 453.302 209.1C445.435 209.1 438.835 206.4 433.502 201C428.235 195.6 425.635 189.233 425.702 181.9C425.635 174.233 428.402 167.7 434.002 162.3C439.602 156.833 446.235 154.1 453.902 154.1C461.635 154.1 468.369 157.233 474.102 163.5V155.5H482.402V197.2ZM474.402 181.9C474.402 176.167 472.469 171.433 468.602 167.7C464.802 163.967 460.135 162.1 454.602 162.1C448.735 162.1 443.802 164.133 439.802 168.2C435.869 172.2 433.902 176.867 433.902 182.2C433.902 187.533 435.802 192.067 439.602 195.8C443.402 199.467 448.269 201.3 454.202 201.3C460.135 201.3 464.969 199.5 468.702 195.9C472.502 192.233 474.402 187.567 474.402 181.9ZM542.187 210H533.887V201.8C528.487 208.2 522.087 211.4 514.687 211.4C510.754 211.4 507.187 210.4 503.987 208.4C500.787 206.333 498.387 203.533 496.787 200C495.187 196.4 494.387 190.9 494.387 183.5V155.5H502.587V181.5C502.587 187.5 502.854 191.6 503.387 193.8C503.987 195.933 504.82 197.767 505.887 199.3C507.02 200.767 508.42 201.867 510.087 202.6C511.82 203.333 513.887 203.7 516.287 203.7C518.754 203.7 521.154 203.1 523.487 201.9C525.82 200.7 527.82 199.033 529.487 196.9C531.154 194.767 532.287 192.5 532.887 190.1C533.554 187.7 533.887 182.9 533.887 175.7V155.5H542.187V210ZM636.827 210H628.427V180.3C628.427 175.567 628.127 172.1 627.527 169.9C626.994 167.7 625.76 165.867 623.827 164.4C621.96 162.867 619.46 162.1 616.327 162.1C613.26 162.1 610.36 163.1 607.627 165.1C604.894 167.1 602.994 169.833 601.927 173.3C600.86 176.7 600.327 181.767 600.327 188.5V210H592.227V182.1C592.227 176.633 591.927 172.7 591.327 170.3C590.794 167.9 589.56 165.933 587.627 164.4C585.694 162.867 583.26 162.1 580.327 162.1C577.394 162.1 574.594 163.033 571.927 164.9C569.327 166.7 567.394 169.1 566.127 172.1C564.86 175.033 564.227 179.933 564.227 186.8V210H556.027V155.5H564.227V163.2C568.894 157.133 574.727 154.1 581.727 154.1C585.527 154.1 588.96 155.133 592.027 157.2C595.16 159.2 597.394 162.067 598.727 165.8C600.994 162 603.827 159.1 607.227 157.1C610.627 155.1 614.227 154.1 618.027 154.1C623.227 154.1 627.66 155.933 631.327 159.6C634.994 163.267 636.827 170.167 636.827 180.3V210ZM652.975 135C654.775 135 656.275 135.633 657.475 136.9C658.741 138.1 659.375 139.6 659.375 141.4C659.375 143.133 658.741 144.633 657.475 145.9C656.275 147.1 654.775 147.7 652.975 147.7C651.241 147.7 649.741 147.067 648.475 145.8C647.275 144.533 646.675 143.067 646.675 141.4C646.675 139.667 647.275 138.167 648.475 136.9C649.741 135.633 651.241 135 652.975 135ZM657.175 210H648.875V155.5H657.175V210Z" fill="white"/>
<path d="M72.6059 210V212H75.6937L74.431 209.182L72.6059 210ZM63.5059 210L61.6897 210.838L62.2258 212H63.5059V210ZM52.2059 185.5L54.022 184.662L53.4859 183.5H52.2059V185.5ZM22.0059 185.5V183.5H20.7211L20.1869 184.668L22.0059 185.5ZM10.8059 210V212H12.0906L12.6248 210.832L10.8059 210ZM1.30586 210L-0.514792 209.172L-1.80049 212H1.30586V210ZM35.9059 133.9V131.9H34.6182L34.0852 133.072L35.9059 133.9ZM38.5059 133.9L40.331 133.082L39.8013 131.9H38.5059V133.9ZM48.3059 176.8V178.8H51.3973L50.1301 175.98L48.3059 176.8ZM37.2059 152.1L39.0301 151.28L37.214 147.239L35.3844 151.274L37.2059 152.1ZM26.0059 176.8L24.1844 175.974L22.903 178.8H26.0059V176.8ZM72.6059 208H63.5059V212H72.6059V208ZM65.322 209.162L54.022 184.662L50.3897 186.338L61.6897 210.838L65.322 209.162ZM52.2059 183.5H22.0059V187.5H52.2059V183.5ZM20.1869 184.668L8.98691 209.168L12.6248 210.832L23.8248 186.332L20.1869 184.668ZM10.8059 208H1.30586V212H10.8059V208ZM3.12651 210.828L37.7265 134.728L34.0852 133.072L-0.514792 209.172L3.12651 210.828ZM35.9059 135.9H38.5059V131.9H35.9059V135.9ZM36.6807 134.718L70.7807 210.818L74.431 209.182L40.331 133.082L36.6807 134.718ZM50.1301 175.98L39.0301 151.28L35.3816 152.92L46.4816 177.62L50.1301 175.98ZM35.3844 151.274L24.1844 175.974L27.8274 177.626L39.0274 152.926L35.3844 151.274ZM26.0059 178.8H48.3059V174.8H26.0059V178.8ZM127.929 210V212H129.929V210H127.929ZM119.629 210H117.629V212H119.629V210ZM119.629 201.8H121.629V196.328L118.101 200.51L119.629 201.8ZM89.7293 208.4L88.6442 210.08L88.6567 210.088L88.6693 210.096L89.7293 208.4ZM82.5293 200L80.7016 200.812L80.7074 200.825L82.5293 200ZM80.1293 155.5V153.5H78.1293V155.5H80.1293ZM88.3293 155.5H90.3293V153.5H88.3293V155.5ZM89.1293 193.8L87.1856 194.271L87.1942 194.307L87.204 194.341L89.1293 193.8ZM91.6293 199.3L89.9875 200.442L90.0161 200.483L90.0467 200.523L91.6293 199.3ZM95.8293 202.6L95.0238 204.431L95.0369 204.436L95.05 204.442L95.8293 202.6ZM109.229 201.9L110.144 203.679L109.229 201.9ZM115.229 196.9L116.805 198.131L115.229 196.9ZM118.629 190.1L116.702 189.565L116.695 189.59L116.689 189.615L118.629 190.1ZM119.629 155.5V153.5H117.629V155.5H119.629ZM127.929 155.5H129.929V153.5H127.929V155.5ZM127.929 208H119.629V212H127.929V208ZM121.629 210V201.8H117.629V210H121.629ZM118.101 200.51C113.025 206.526 107.158 209.4 100.429 209.4V213.4C108.5 213.4 115.434 209.874 121.158 203.09L118.101 200.51ZM100.429 209.4C96.8541 209.4 93.6576 208.497 90.7893 206.704L88.6693 210.096C92.201 212.303 96.1378 213.4 100.429 213.4V209.4ZM90.8143 206.72C87.9431 204.866 85.7958 202.365 84.3512 199.175L80.7074 200.825C82.4628 204.701 85.1155 207.801 88.6442 210.08L90.8143 206.72ZM84.3569 199.188C82.9312 195.98 82.1293 190.823 82.1293 183.5H78.1293C78.1293 190.977 78.9274 196.82 80.7017 200.812L84.3569 199.188ZM82.1293 183.5V155.5H78.1293V183.5H82.1293ZM80.1293 157.5H88.3293V153.5H80.1293V157.5ZM86.3293 155.5V181.5H90.3293V155.5H86.3293ZM86.3293 181.5C86.3293 187.481 86.5884 191.808 87.1856 194.271L91.073 193.329C90.6035 191.392 90.3293 187.519 90.3293 181.5H86.3293ZM87.204 194.341C87.8534 196.65 88.7723 198.695 89.9875 200.442L93.2711 198.158C92.353 196.838 91.6052 195.216 91.0546 193.259L87.204 194.341ZM90.0467 200.523C91.3805 202.249 93.0458 203.56 95.0238 204.431L96.6348 200.769C95.2795 200.173 94.1448 199.284 93.2119 198.077L90.0467 200.523ZM95.05 204.442C97.0877 205.304 99.4323 205.7 102.029 205.7V201.7C99.8262 201.7 98.0376 201.363 96.6086 200.758L95.05 204.442ZM102.029 205.7C104.834 205.7 107.546 205.015 110.144 203.679L108.315 200.121C106.246 201.185 104.158 201.7 102.029 201.7V205.7ZM110.144 203.679C112.743 202.342 114.966 200.485 116.805 198.131L113.653 195.669C112.159 197.581 110.382 199.058 108.315 200.121L110.144 203.679ZM116.805 198.131C118.628 195.798 119.896 193.281 120.57 190.585L116.689 189.615C116.163 191.719 115.164 193.735 113.653 195.669L116.805 198.131ZM120.556 190.635C121.307 187.931 121.629 182.86 121.629 175.7H117.629C117.629 182.94 117.284 187.469 116.702 189.565L120.556 190.635ZM121.629 175.7V155.5H117.629V175.7H121.629ZM119.629 157.5H127.929V153.5H119.629V157.5ZM125.929 155.5V210H129.929V155.5H125.929ZM166.869 162.7V164.7H168.869V162.7H166.869ZM156.069 162.7V160.7H154.069V162.7H156.069ZM156.669 203.5L155.389 205.036L155.471 205.105L155.56 205.164L156.669 203.5ZM164.469 203.9H166.469V201.9H164.469V203.9ZM164.469 211L164.798 212.973L166.469 212.694V211H164.469ZM150.069 209.5L148.625 210.884L148.64 210.899L148.655 210.914L150.069 209.5ZM147.769 162.7H149.769V160.7H147.769V162.7ZM138.369 162.7H136.369V164.7H138.369V162.7ZM138.369 155.5V153.5H136.369V155.5H138.369ZM147.769 155.5V157.5H149.769V155.5H147.769ZM147.769 135V133H145.769V135H147.769ZM156.069 135H158.069V133H156.069V135ZM156.069 155.5H154.069V157.5H156.069V155.5ZM166.869 155.5H168.869V153.5H166.869V155.5ZM166.869 160.7H156.069V164.7H166.869V160.7ZM154.069 162.7V200.9H158.069V162.7H154.069ZM154.069 200.9C154.069 201.676 154.123 202.41 154.27 203.05C154.406 203.637 154.689 204.453 155.389 205.036L157.95 201.964C158.113 202.1 158.181 202.227 158.195 202.256C158.21 202.284 158.193 202.26 158.168 202.15C158.116 201.923 158.069 201.524 158.069 200.9H154.069ZM155.56 205.164C156.167 205.569 156.914 205.71 157.455 205.782C158.078 205.866 158.825 205.9 159.669 205.9V201.9C158.913 201.9 158.361 201.868 157.983 201.818C157.796 201.793 157.685 201.767 157.631 201.752C157.564 201.733 157.642 201.745 157.779 201.836L155.56 205.164ZM159.669 205.9H164.469V201.9H159.669V205.9ZM162.469 203.9V211H166.469V203.9H162.469ZM164.14 209.027C160.968 209.556 158.666 209.8 157.169 209.8V213.8C159.006 213.8 161.571 213.511 164.798 212.973L164.14 209.027ZM157.169 209.8C154.249 209.8 152.495 209.098 151.483 208.086L148.655 210.914C150.71 212.969 153.69 213.8 157.169 213.8V209.8ZM151.513 208.116C150.487 207.045 149.769 205.152 149.769 202H145.769C145.769 205.648 146.585 208.755 148.625 210.884L151.513 208.116ZM149.769 202V162.7H145.769V202H149.769ZM147.769 160.7H138.369V164.7H147.769V160.7ZM140.369 162.7V155.5H136.369V162.7H140.369ZM138.369 157.5H147.769V153.5H138.369V157.5ZM149.769 155.5V135H145.769V155.5H149.769ZM147.769 137H156.069V133H147.769V137ZM154.069 135V155.5H158.069V135H154.069ZM156.069 157.5H166.869V153.5H156.069V157.5ZM164.869 155.5V162.7H168.869V155.5H164.869ZM221.556 162.6L220.116 163.989L220.125 163.997L221.556 162.6ZM221.656 203.4L220.216 202.011L220.216 202.012L221.656 203.4ZM181.356 203.4L179.916 204.789L179.925 204.797L181.356 203.4ZM181.356 162.6L179.925 161.203L179.916 161.211L181.356 162.6ZM215.656 197.9L214.218 196.51L214.218 196.51L215.656 197.9ZM215.556 168.5L214.096 169.867L214.107 169.879L214.119 169.891L215.556 168.5ZM187.456 168.5L188.905 169.879L188.91 169.873L188.916 169.867L187.456 168.5ZM187.256 197.9L185.806 199.277L187.256 197.9ZM201.556 156.1C208.879 156.1 215.026 158.712 220.116 163.989L222.995 161.211C217.152 155.154 209.966 152.1 201.556 152.1V156.1ZM220.125 163.997C225.293 169.29 227.856 175.588 227.856 183H231.856C231.856 174.545 228.886 167.244 222.987 161.203L220.125 163.997ZM227.856 183C227.856 190.42 225.32 196.721 220.216 202.011L223.095 204.789C228.925 198.746 231.856 191.447 231.856 183H227.856ZM220.216 202.012C215.205 207.209 209.03 209.8 201.556 209.8V213.8C210.082 213.8 217.307 210.791 223.096 204.788L220.216 202.012ZM201.556 209.8C194.081 209.8 187.868 207.208 182.787 202.003L179.925 204.797C185.777 210.792 193.031 213.8 201.556 213.8V209.8ZM182.795 202.011C177.691 196.721 175.156 190.42 175.156 183H171.156C171.156 191.447 174.087 198.746 179.916 204.789L182.795 202.011ZM175.156 183C175.156 175.58 177.691 169.279 182.795 163.989L179.916 161.211C174.087 167.254 171.156 174.553 171.156 183H175.156ZM182.787 163.997C187.943 158.717 194.16 156.1 201.556 156.1V152.1C193.085 152.1 185.835 155.15 179.925 161.203L182.787 163.997ZM201.556 205.9C207.635 205.9 212.853 203.677 217.094 199.29L214.218 196.51C210.726 200.123 206.544 201.9 201.556 201.9V205.9ZM217.093 199.29C221.388 194.85 223.556 189.485 223.556 183.3H219.556C219.556 188.449 217.79 192.817 214.218 196.51L217.093 199.29ZM223.556 183.3C223.556 177.046 221.353 171.614 216.993 167.109L214.119 169.891C217.759 173.653 219.556 178.088 219.556 183.3H223.556ZM217.016 167.133C212.727 162.553 207.508 160.2 201.456 160.2V164.2C206.337 164.2 210.519 166.047 214.096 169.867L217.016 167.133ZM201.456 160.2C195.463 160.2 190.28 162.559 185.996 167.133L188.916 169.867C192.499 166.041 196.648 164.2 201.456 164.2V160.2ZM186.007 167.121C181.718 171.628 179.556 177.056 179.556 183.3H183.556C183.556 178.077 185.327 173.638 188.905 169.879L186.007 167.121ZM179.556 183.3C179.556 189.524 181.638 194.89 185.806 199.277L188.706 196.522C185.274 192.91 183.556 188.543 183.556 183.3H179.556ZM185.806 199.277C190 203.692 195.298 205.9 201.556 205.9V201.9C196.347 201.9 192.112 200.108 188.706 196.522L185.806 199.277ZM272.883 169.9L271.812 168.211L268.406 170.371L272.187 171.775L272.883 169.9ZM283.383 177.3L281.767 178.478L281.775 178.489L281.783 178.5L283.383 177.3ZM280.283 204L281.629 205.48L281.63 205.479L280.283 204ZM242.483 210H240.483V212H242.483V210ZM242.483 136.8V134.8H240.483V136.8H242.483ZM274.983 141.6L273.734 143.162L273.748 143.173L273.763 143.184L274.983 141.6ZM250.983 166.8H248.983V168.8H250.983V166.8ZM267.783 164L266.727 162.302L266.718 162.307L266.709 162.313L267.783 164ZM250.983 145.2V143.2H248.983V145.2H250.983ZM250.983 201.6H248.983V203.6H250.983V201.6ZM270.383 200.1L271.171 201.938L270.383 200.1ZM276.783 183.6L274.98 184.465L275.001 184.51L275.025 184.553L276.783 183.6ZM273.083 179.2L271.842 180.768L271.857 180.78L271.873 180.792L273.083 179.2ZM267.083 176.4L266.534 178.323L266.566 178.332L266.598 178.34L267.083 176.4ZM250.983 175.4V173.4H248.983V175.4H250.983ZM272.187 171.775C276.58 173.407 279.718 175.669 281.767 178.478L284.999 176.122C282.381 172.531 278.52 169.86 273.58 168.025L272.187 171.775ZM281.783 178.5C283.897 181.319 284.983 184.687 284.983 188.7H288.983C288.983 183.913 287.669 179.681 284.983 176.1L281.783 178.5ZM284.983 188.7C284.983 194.28 282.98 198.84 278.937 202.521L281.63 205.479C286.52 201.027 288.983 195.386 288.983 188.7H284.983ZM278.938 202.52C274.977 206.121 269.724 208 262.983 208V212C270.509 212 276.79 209.879 281.629 205.48L278.938 202.52ZM262.983 208H242.483V212H262.983V208ZM244.483 210V136.8H240.483V210H244.483ZM242.483 138.8H257.383V134.8H242.483V138.8ZM257.383 138.8C264.884 138.8 270.229 140.358 273.734 143.162L276.233 140.038C271.737 136.442 265.35 134.8 257.383 134.8V138.8ZM273.763 143.184C277.263 145.882 279.083 149.753 279.083 155.1H283.083C283.083 148.714 280.837 143.585 276.204 140.016L273.763 143.184ZM279.083 155.1C279.083 160.806 276.708 165.106 271.812 168.211L273.954 171.589C279.991 167.761 283.083 162.194 283.083 155.1H279.083ZM250.983 168.8H254.383V164.8H250.983V168.8ZM254.383 168.8C260.52 168.8 265.446 167.858 268.857 165.687L266.709 162.313C264.254 163.875 260.246 164.8 254.383 164.8V168.8ZM268.84 165.698C272.524 163.406 274.283 159.735 274.283 155.1H270.283C270.283 158.599 269.043 160.861 266.727 162.302L268.84 165.698ZM274.283 155.1C274.283 151.283 272.927 148.148 270.03 146.054C267.252 144.047 263.331 143.2 258.583 143.2V147.2C262.969 147.2 265.897 148.003 267.687 149.296C269.356 150.502 270.283 152.317 270.283 155.1H274.283ZM258.583 143.2H250.983V147.2H258.583V143.2ZM248.983 145.2V166.8H252.983V145.2H248.983ZM250.983 203.6H259.183V199.6H250.983V203.6ZM259.183 203.6C264.367 203.6 268.445 203.107 271.171 201.938L269.595 198.262C267.655 199.093 264.266 199.6 259.183 199.6V203.6ZM271.171 201.938C273.85 200.79 276.02 199.011 277.639 196.622L274.327 194.378C273.146 196.122 271.583 197.41 269.595 198.262L271.171 201.938ZM277.639 196.622C279.224 194.282 280.083 191.798 280.083 189.2H276.083C276.083 190.869 275.542 192.585 274.327 194.378L277.639 196.622ZM280.083 189.2C280.083 186.792 279.592 184.587 278.542 182.647L275.025 184.553C275.708 185.813 276.083 187.342 276.083 189.2H280.083ZM278.586 182.735C277.632 180.746 276.179 179.041 274.293 177.608L271.873 180.792C273.321 181.893 274.335 183.121 274.98 184.465L278.586 182.735ZM274.325 177.632C272.46 176.156 270.187 175.114 267.568 174.46L266.598 178.34C268.78 178.886 270.507 179.711 271.842 180.768L274.325 177.632ZM267.633 174.477C264.997 173.724 260.468 173.4 254.283 173.4V177.4C260.498 177.4 264.503 177.743 266.534 178.323L267.633 174.477ZM254.283 173.4H250.983V177.4H254.283V173.4ZM248.983 175.4V201.6H252.983V175.4H248.983ZM352.905 210V212H354.905V210H352.905ZM344.805 210H342.805V212H344.805V210ZM344.805 202H346.805V196.823L343.325 200.655L344.805 202ZM304.405 203.3L302.958 204.68L302.966 204.689L302.974 204.697L304.405 203.3ZM304.505 162.6L305.928 164.006L305.936 163.997L304.505 162.6ZM344.805 163.8L343.27 165.082L346.805 169.315V163.8H344.805ZM344.805 155.5V153.5H342.805V155.5H344.805ZM352.905 155.5H354.905V153.5H352.905V155.5ZM339.205 198.1L340.619 199.514L339.205 198.1ZM339.305 168.2L337.867 169.59L337.873 169.596L337.879 169.602L339.305 168.2ZM310.405 168.4L311.854 169.779L311.859 169.773L311.865 169.767L310.405 168.4ZM310.505 197.9L309.057 199.279L309.062 199.285L309.068 199.291L310.505 197.9ZM352.905 208H344.805V212H352.905V208ZM346.805 210V202H342.805V210H346.805ZM343.325 200.655C337.711 206.836 331.392 209.8 324.305 209.8V213.8C332.685 213.8 340.032 210.23 346.286 203.345L343.325 200.655ZM324.305 209.8C317.125 209.8 311.003 207.194 305.836 201.903L302.974 204.697C308.874 210.739 316.019 213.8 324.305 213.8V209.8ZM305.853 201.92C300.738 196.556 298.205 190.249 298.205 182.9H294.205C294.205 191.285 297.139 198.578 302.958 204.68L305.853 201.92ZM298.205 182.9C298.205 175.488 300.767 169.228 305.928 164.006L303.082 161.194C297.176 167.172 294.205 174.445 294.205 182.9H298.205ZM305.936 163.997C311.092 158.717 317.309 156.1 324.705 156.1V152.1C316.234 152.1 308.985 155.15 303.074 161.203L305.936 163.997ZM324.705 156.1C332.077 156.1 338.227 159.043 343.27 165.082L346.34 162.518C340.583 155.624 333.333 152.1 324.705 152.1V156.1ZM346.805 163.8V155.5H342.805V163.8H346.805ZM344.805 157.5H352.905V153.5H344.805V157.5ZM350.905 155.5V210H354.905V155.5H350.905ZM324.905 206.1C330.982 206.1 336.254 203.88 340.619 199.514L337.791 196.686C334.157 200.32 329.895 202.1 324.905 202.1V206.1ZM340.619 199.514C345.014 195.119 347.205 189.635 347.205 183.2H343.205C343.205 188.632 341.396 193.081 337.791 196.686L340.619 199.514ZM347.205 183.2C347.205 176.716 345.06 171.2 340.731 166.798L337.879 169.602C341.417 173.2 343.205 177.684 343.205 183.2H347.205ZM340.743 166.81C336.427 162.347 331.072 160.1 324.805 160.1V164.1C330.005 164.1 334.317 165.919 337.867 169.59L340.743 166.81ZM324.805 160.1C318.576 160.1 313.25 162.436 308.945 167.033L311.865 169.767C315.427 165.964 319.701 164.1 324.805 164.1V160.1ZM308.956 167.021C304.672 171.524 302.505 176.916 302.505 183.1H306.505C306.505 177.951 308.272 173.543 311.854 169.779L308.956 167.021ZM302.505 183.1C302.505 189.293 304.712 194.717 309.057 199.279L311.953 196.521C308.298 192.683 306.505 188.24 306.505 183.1H302.505ZM309.068 199.291C313.433 203.802 318.747 206.1 324.905 206.1V202.1C319.863 202.1 315.577 200.265 311.942 196.509L309.068 199.291ZM414.667 210V212H416.667V210H414.667ZM406.467 210H404.467V212H406.467V210ZM405.567 171.8L403.623 172.271L403.632 172.307L403.642 172.341L405.567 171.8ZM403.067 166.3L401.425 167.442L401.454 167.483L401.484 167.523L403.067 166.3ZM398.867 162.9L398.061 164.731L398.074 164.736L398.088 164.742L398.867 162.9ZM376.067 175.4L374.14 174.865L374.133 174.89L374.127 174.915L376.067 175.4ZM375.167 210V212H377.167V210H375.167ZM366.867 210H364.867V212H366.867V210ZM366.867 155.5V153.5H364.867V155.5H366.867ZM375.167 155.5H377.167V153.5H375.167V155.5ZM375.167 163.7H373.167V169.172L376.695 164.99L375.167 163.7ZM405.067 157.2L403.982 158.88L403.994 158.888L404.007 158.896L405.067 157.2ZM412.267 165.6L410.439 166.412L410.445 166.425L412.267 165.6ZM414.667 208H406.467V212H414.667V208ZM408.467 210V184H404.467V210H408.467ZM408.467 184C408.467 178.027 408.177 173.695 407.492 171.259L403.642 172.341C404.156 174.172 404.467 177.973 404.467 184H408.467ZM407.51 171.329C406.925 168.915 405.988 166.81 404.649 165.077L401.484 167.523C402.412 168.724 403.142 170.285 403.623 172.271L407.51 171.329ZM404.709 165.158C403.425 163.312 401.724 161.937 399.646 161.058L398.088 164.742C399.476 165.329 400.576 166.221 401.425 167.442L404.709 165.158ZM399.672 161.069C397.679 160.192 395.318 159.8 392.667 159.8V163.8C394.949 163.8 396.721 164.141 398.061 164.731L399.672 161.069ZM392.667 159.8C389.92 159.8 387.241 160.49 384.652 161.821L386.482 165.379C388.559 164.31 390.614 163.8 392.667 163.8V159.8ZM384.652 161.821C382.053 163.158 379.83 165.015 377.991 167.369L381.143 169.831C382.637 167.919 384.414 166.442 386.482 165.379L384.652 161.821ZM377.991 167.369C376.177 169.691 374.883 172.191 374.14 174.865L377.994 175.935C378.584 173.809 379.624 171.776 381.143 169.831L377.991 167.369ZM374.127 174.915C373.457 177.592 373.167 182.637 373.167 189.8H377.167C377.167 182.563 377.476 178.008 378.007 175.885L374.127 174.915ZM373.167 189.8V210H377.167V189.8H373.167ZM375.167 208H366.867V212H375.167V208ZM368.867 210V155.5H364.867V210H368.867ZM366.867 157.5H375.167V153.5H366.867V157.5ZM373.167 155.5V163.7H377.167V155.5H373.167ZM376.695 164.99C381.771 158.974 387.638 156.1 394.367 156.1V152.1C386.296 152.1 379.362 155.626 373.638 162.41L376.695 164.99ZM394.367 156.1C397.928 156.1 401.116 157.029 403.982 158.88L406.152 155.52C402.618 153.237 398.672 152.1 394.367 152.1V156.1ZM404.007 158.896C406.853 160.675 408.994 163.16 410.439 166.412L414.094 164.788C412.34 160.84 409.68 157.725 406.127 155.504L404.007 158.896ZM410.445 166.425C411.864 169.558 412.667 174.672 412.667 182H416.667C416.667 174.528 415.87 168.709 414.089 164.775L410.445 166.425ZM412.667 182V210H416.667V182H412.667ZM480.502 213.2L478.623 212.514L478.618 212.53L478.612 212.546L480.502 213.2ZM474.902 222L473.526 220.548L473.517 220.557L473.507 220.567L474.902 222ZM465.902 227.4L465.259 225.506L465.237 225.514L465.216 225.521L465.902 227.4ZM426.002 211.3V209.3H423.063L424.141 212.034L426.002 211.3ZM434.802 211.3L436.549 210.326L435.977 209.3H434.802V211.3ZM465.202 219.3L466.082 221.096L465.202 219.3ZM472.102 212.9L473.891 213.794L472.102 212.9ZM474.102 200.1H476.102V194.828L472.605 198.773L474.102 200.1ZM464.702 206.8L463.93 204.955L464.702 206.8ZM433.502 201L432.07 202.396L432.079 202.405L433.502 201ZM425.702 181.9L427.702 181.918L427.702 181.9L427.702 181.883L425.702 181.9ZM434.002 162.3L435.39 163.74L435.399 163.731L434.002 162.3ZM474.102 163.5L472.626 164.85L476.102 168.649V163.5H474.102ZM474.102 155.5V153.5H472.102V155.5H474.102ZM482.402 155.5H484.402V153.5H482.402V155.5ZM468.602 167.7L467.2 169.127L467.207 169.133L467.213 169.139L468.602 167.7ZM439.802 168.2L438.376 166.798L438.376 166.798L439.802 168.2ZM439.602 195.8L438.2 197.227L438.207 197.233L438.213 197.239L439.602 195.8ZM468.702 195.9L470.09 197.34L470.091 197.339L468.702 195.9ZM480.402 197.2C480.402 204.345 479.765 209.388 478.623 212.514L482.38 213.886C483.772 210.078 484.402 204.455 484.402 197.2H480.402ZM478.612 212.546C477.511 215.725 475.815 218.38 473.526 220.548L476.277 223.452C479.056 220.82 481.092 217.608 482.392 213.854L478.612 212.546ZM473.507 220.567C471.271 222.742 468.535 224.394 465.259 225.506L466.545 229.294C470.336 228.006 473.599 226.058 476.297 223.433L473.507 220.567ZM465.216 225.521C461.997 226.698 458.4 227.3 454.402 227.3V231.3C458.804 231.3 462.874 230.636 466.588 229.279L465.216 225.521ZM454.402 227.3C447.581 227.3 442.06 225.86 437.723 223.111C433.399 220.371 430.098 216.234 427.862 210.566L424.141 212.034C426.639 218.366 430.438 223.229 435.581 226.489C440.71 229.74 447.023 231.3 454.402 231.3V227.3ZM426.002 213.3H434.802V209.3H426.002V213.3ZM433.055 212.274C437.329 219.937 444.494 223.7 454.102 223.7V219.7C445.71 219.7 440.008 216.53 436.549 210.326L433.055 212.274ZM454.102 223.7C458.498 223.7 462.506 222.848 466.082 221.096L464.322 217.504C461.365 218.952 457.972 219.7 454.102 219.7V223.7ZM466.082 221.096C469.653 219.347 472.321 216.933 473.891 213.794L470.313 212.006C469.216 214.2 467.284 216.053 464.322 217.504L466.082 221.096ZM473.891 213.794C475.437 210.703 476.102 206.222 476.102 200.6H472.102C472.102 206.045 471.434 209.764 470.313 212.006L473.891 213.794ZM476.102 200.6V200.1H472.102V200.6H476.102ZM472.605 198.773C470.208 201.478 467.323 203.536 463.93 204.955L465.474 208.645C469.414 206.997 472.796 204.588 475.599 201.427L472.605 198.773ZM463.93 204.955C460.505 206.387 456.968 207.1 453.302 207.1V211.1C457.503 211.1 461.565 210.28 465.474 208.645L463.93 204.955ZM453.302 207.1C445.948 207.1 439.867 204.599 434.925 199.595L432.079 202.405C437.803 208.201 444.922 211.1 453.302 211.1V207.1ZM434.934 199.604C430.024 194.57 427.64 188.707 427.702 181.918L423.702 181.882C423.63 189.76 426.447 196.63 432.07 202.396L434.934 199.604ZM427.702 181.883C427.64 174.774 430.179 168.765 435.39 163.74L432.614 160.86C426.625 166.635 423.631 173.693 423.702 181.917L427.702 181.883ZM435.399 163.731C440.634 158.621 446.769 156.1 453.902 156.1V152.1C445.701 152.1 438.57 155.046 432.605 160.869L435.399 163.731ZM453.902 156.1C461.015 156.1 467.23 158.952 472.626 164.85L475.578 162.15C469.507 155.515 462.255 152.1 453.902 152.1V156.1ZM476.102 163.5V155.5H472.102V163.5H476.102ZM474.102 157.5H482.402V153.5H474.102V157.5ZM480.402 155.5V197.2H484.402V155.5H480.402ZM476.402 181.9C476.402 175.664 474.276 170.399 469.991 166.261L467.213 169.139C470.661 172.468 472.402 176.669 472.402 181.9H476.402ZM470.004 166.273C465.814 162.157 460.637 160.1 454.602 160.1V164.1C459.634 164.1 463.79 165.776 467.2 169.127L470.004 166.273ZM454.602 160.1C448.216 160.1 442.764 162.337 438.376 166.798L441.228 169.602C444.84 165.93 449.254 164.1 454.602 164.1V160.1ZM438.376 166.798C434.096 171.15 431.902 176.313 431.902 182.2H435.902C435.902 177.421 437.641 173.25 441.228 169.602L438.376 166.798ZM431.902 182.2C431.902 188.069 434.017 193.117 438.2 197.227L441.004 194.373C437.587 191.017 435.902 186.997 435.902 182.2H431.902ZM438.213 197.239C442.433 201.311 447.82 203.3 454.202 203.3V199.3C448.717 199.3 444.371 197.622 440.991 194.361L438.213 197.239ZM454.202 203.3C460.573 203.3 465.93 201.351 470.09 197.34L467.314 194.46C464.007 197.649 459.698 199.3 454.202 199.3V203.3ZM470.091 197.339C474.312 193.266 476.402 188.065 476.402 181.9H472.402C472.402 187.068 470.692 191.201 467.313 194.461L470.091 197.339ZM542.187 210V212H544.187V210H542.187ZM533.887 210H531.887V212H533.887V210ZM533.887 201.8H535.887V196.328L532.359 200.51L533.887 201.8ZM503.987 208.4L502.902 210.08L502.915 210.088L502.927 210.096L503.987 208.4ZM496.787 200L494.959 200.812L494.965 200.825L496.787 200ZM494.387 155.5V153.5H492.387V155.5H494.387ZM502.587 155.5H504.587V153.5H502.587V155.5ZM503.387 193.8L501.443 194.271L501.452 194.307L501.462 194.341L503.387 193.8ZM505.887 199.3L504.245 200.442L504.274 200.483L504.305 200.523L505.887 199.3ZM510.087 202.6L509.282 204.431L509.295 204.436L509.308 204.442L510.087 202.6ZM523.487 201.9L524.402 203.679L523.487 201.9ZM529.487 196.9L531.063 198.131L529.487 196.9ZM532.887 190.1L530.96 189.565L530.953 189.59L530.947 189.615L532.887 190.1ZM533.887 155.5V153.5H531.887V155.5H533.887ZM542.187 155.5H544.187V153.5H542.187V155.5ZM542.187 208H533.887V212H542.187V208ZM535.887 210V201.8H531.887V210H535.887ZM532.359 200.51C527.282 206.526 521.416 209.4 514.687 209.4V213.4C522.758 213.4 529.692 209.874 535.416 203.09L532.359 200.51ZM514.687 209.4C511.112 209.4 507.915 208.497 505.047 206.704L502.927 210.096C506.459 212.303 510.396 213.4 514.687 213.4V209.4ZM505.072 206.72C502.201 204.866 500.054 202.365 498.609 199.175L494.965 200.825C496.721 204.701 499.373 207.801 502.902 210.08L505.072 206.72ZM498.615 199.188C497.189 195.98 496.387 190.823 496.387 183.5H492.387C492.387 190.977 493.185 196.82 494.959 200.812L498.615 199.188ZM496.387 183.5V155.5H492.387V183.5H496.387ZM494.387 157.5H502.587V153.5H494.387V157.5ZM500.587 155.5V181.5H504.587V155.5H500.587ZM500.587 181.5C500.587 187.481 500.846 191.808 501.443 194.271L505.331 193.329C504.861 191.392 504.587 187.519 504.587 181.5H500.587ZM501.462 194.341C502.111 196.65 503.03 198.695 504.245 200.442L507.529 198.158C506.611 196.838 505.863 195.216 505.312 193.259L501.462 194.341ZM504.305 200.523C505.638 202.249 507.304 203.56 509.282 204.431L510.893 200.769C509.537 200.173 508.403 199.284 507.47 198.077L504.305 200.523ZM509.308 204.442C511.345 205.304 513.69 205.7 516.287 205.7V201.7C514.084 201.7 512.295 201.363 510.866 200.758L509.308 204.442ZM516.287 205.7C519.092 205.7 521.804 205.015 524.402 203.679L522.572 200.121C520.504 201.185 518.415 201.7 516.287 201.7V205.7ZM524.402 203.679C527.001 202.342 529.224 200.485 531.063 198.131L527.911 195.669C526.417 197.581 524.64 199.058 522.572 200.121L524.402 203.679ZM531.063 198.131C532.886 195.798 534.153 193.281 534.827 190.585L530.947 189.615C530.421 191.719 529.422 193.735 527.911 195.669L531.063 198.131ZM534.814 190.635C535.565 187.931 535.887 182.86 535.887 175.7H531.887C531.887 182.94 531.542 187.469 530.96 189.565L534.814 190.635ZM535.887 175.7V155.5H531.887V175.7H535.887ZM533.887 157.5H542.187V153.5H533.887V157.5ZM540.187 155.5V210H544.187V155.5H540.187ZM636.827 210V212H638.827V210H636.827ZM628.427 210H626.427V212H628.427V210ZM627.527 169.9L625.583 170.371L625.59 170.399L625.597 170.426L627.527 169.9ZM623.827 164.4L622.557 165.945L622.587 165.97L622.618 165.993L623.827 164.4ZM607.627 165.1L608.808 166.714L607.627 165.1ZM601.927 173.3L603.835 173.899L603.839 173.888L601.927 173.3ZM600.327 210V212H602.327V210H600.327ZM592.227 210H590.227V212H592.227V210ZM591.327 170.3L589.375 170.734L589.38 170.76L589.387 170.785L591.327 170.3ZM571.927 164.9L573.065 166.544L573.074 166.538L571.927 164.9ZM566.127 172.1L567.963 172.893L567.966 172.885L567.969 172.878L566.127 172.1ZM564.227 210V212H566.227V210H564.227ZM556.027 210H554.027V212H556.027V210ZM556.027 155.5V153.5H554.027V155.5H556.027ZM564.227 155.5H566.227V153.5H564.227V155.5ZM564.227 163.2H562.227V169.08L565.812 164.419L564.227 163.2ZM592.027 157.2L590.909 158.859L590.93 158.872L590.951 158.886L592.027 157.2ZM598.727 165.8L596.843 166.473L598.271 170.469L600.445 166.825L598.727 165.8ZM607.227 157.1L606.213 155.376L607.227 157.1ZM636.827 208H628.427V212H636.827V208ZM630.427 210V180.3H626.427V210H630.427ZM630.427 180.3C630.427 175.537 630.131 171.845 629.456 169.374L625.597 170.426C626.123 172.355 626.427 175.597 626.427 180.3H630.427ZM629.471 169.429C628.821 166.748 627.308 164.53 625.036 162.807L622.618 165.993C624.213 167.203 625.167 168.652 625.583 170.371L629.471 169.429ZM625.096 162.855C622.777 160.95 619.784 160.1 616.327 160.1V164.1C619.137 164.1 621.143 164.784 622.557 165.945L625.096 162.855ZM616.327 160.1C612.791 160.1 609.484 161.263 606.446 163.486L608.808 166.714C611.236 164.937 613.729 164.1 616.327 164.1V160.1ZM606.446 163.486C603.34 165.759 601.199 168.864 600.015 172.712L603.839 173.888C604.788 170.802 606.448 168.441 608.808 166.714L606.446 163.486ZM600.019 172.701C598.859 176.398 598.327 181.71 598.327 188.5H602.327C602.327 181.823 602.862 177.002 603.835 173.899L600.019 172.701ZM598.327 188.5V210H602.327V188.5H598.327ZM600.327 208H592.227V212H600.327V208ZM594.227 210V182.1H590.227V210H594.227ZM594.227 182.1C594.227 176.618 593.931 172.472 593.267 169.815L589.387 170.785C589.922 172.928 590.227 176.649 590.227 182.1H594.227ZM593.279 169.866C592.646 167.016 591.161 164.65 588.87 162.833L586.384 165.967C587.959 167.216 588.941 168.784 589.375 170.734L593.279 169.866ZM588.87 162.833C586.519 160.969 583.623 160.1 580.327 160.1V164.1C582.898 164.1 584.868 164.764 586.384 165.967L588.87 162.833ZM580.327 160.1C576.939 160.1 573.744 161.187 570.78 163.262L573.074 166.538C575.443 164.88 577.849 164.1 580.327 164.1V160.1ZM570.789 163.256C567.867 165.278 565.694 167.983 564.284 171.322L567.969 172.878C569.093 170.217 570.787 168.122 573.065 166.544L570.789 163.256ZM564.291 171.307C562.85 174.645 562.227 179.903 562.227 186.8H566.227C566.227 179.964 566.871 175.422 567.963 172.893L564.291 171.307ZM562.227 186.8V210H566.227V186.8H562.227ZM564.227 208H556.027V212H564.227V208ZM558.027 210V155.5H554.027V210H558.027ZM556.027 157.5H564.227V153.5H556.027V157.5ZM562.227 155.5V163.2H566.227V155.5H562.227ZM565.812 164.419C570.141 158.792 575.412 156.1 581.727 156.1V152.1C574.042 152.1 567.646 155.475 562.642 161.981L565.812 164.419ZM581.727 156.1C585.14 156.1 588.182 157.021 590.909 158.859L593.145 155.541C589.738 153.246 585.914 152.1 581.727 152.1V156.1ZM590.951 158.886C593.684 160.631 595.649 163.128 596.843 166.473L600.61 165.127C599.138 161.006 596.636 157.769 593.103 155.514L590.951 158.886ZM600.445 166.825C602.56 163.277 605.164 160.634 608.241 158.824L606.213 155.376C602.49 157.566 599.427 160.723 597.009 164.775L600.445 166.825ZM608.241 158.824C611.346 156.997 614.597 156.1 618.027 156.1V152.1C613.856 152.1 609.908 153.203 606.213 155.376L608.241 158.824ZM618.027 156.1C622.698 156.1 626.622 157.724 629.913 161.014L632.741 158.186C628.698 154.143 623.756 152.1 618.027 152.1V156.1ZM629.913 161.014C632.977 164.079 634.827 170.253 634.827 180.3H638.827C638.827 170.081 637.01 162.455 632.741 158.186L629.913 161.014ZM634.827 180.3V210H638.827V180.3H634.827ZM657.475 136.9L656.023 138.275L656.06 138.315L656.099 138.352L657.475 136.9ZM657.475 145.9L658.889 147.314L657.475 145.9ZM648.475 145.8L647.023 147.175L647.041 147.195L647.06 147.214L648.475 145.8ZM648.475 136.9L647.06 135.486L647.041 135.505L647.023 135.525L648.475 136.9ZM657.175 210V212H659.175V210H657.175ZM648.875 210H646.875V212H648.875V210ZM648.875 155.5V153.5H646.875V155.5H648.875ZM657.175 155.5H659.175V153.5H657.175V155.5ZM652.975 137C654.245 137 655.214 137.421 656.023 138.275L658.927 135.525C657.336 133.845 655.304 133 652.975 133V137ZM656.099 138.352C656.953 139.161 657.375 140.13 657.375 141.4H661.375C661.375 139.07 660.529 137.039 658.85 135.448L656.099 138.352ZM657.375 141.4C657.375 142.583 656.966 143.58 656.06 144.486L658.889 147.314C660.517 145.686 661.375 143.683 661.375 141.4H657.375ZM656.06 144.486C655.26 145.286 654.28 145.7 652.975 145.7V149.7C655.269 149.7 657.289 148.914 658.889 147.314L656.06 144.486ZM652.975 145.7C651.791 145.7 650.794 145.291 649.889 144.386L647.06 147.214C648.688 148.842 650.691 149.7 652.975 149.7V145.7ZM649.927 144.425C649.06 143.51 648.675 142.529 648.675 141.4H644.675C644.675 143.604 645.489 145.557 647.023 147.175L649.927 144.425ZM648.675 141.4C648.675 140.182 649.076 139.173 649.927 138.275L647.023 135.525C645.473 137.16 644.675 139.151 644.675 141.4H648.675ZM649.889 138.314C650.794 137.409 651.791 137 652.975 137V133C650.691 133 648.688 133.858 647.06 135.486L649.889 138.314ZM657.175 208H648.875V212H657.175V208ZM650.875 210V155.5H646.875V210H650.875ZM648.875 157.5H657.175V153.5H648.875V157.5ZM655.175 155.5V210H659.175V155.5H655.175Z" fill="white"/>
<defs>
<clipPath id="clip0_1852_4761">
<rect width="96" height="96" fill="white" transform="translate(283.5)"/>
</clipPath>
</defs>
</svg>
