<svg width="159" height="23" viewBox="0 0 159 23" fill="none" xmlns="http://www.w3.org/2000/svg">
<path d="M17.6437 18.368H15.4597L12.7477 12.488H5.49974L2.81174 18.368H0.531738L8.83574 0.104004H9.45974L17.6437 18.368ZM11.8117 10.4L9.14774 4.472L6.45974 10.4H11.8117Z" fill="url(#paint0_linear_2568_145)"/>
<path d="M30.9214 18.368H28.9294V16.4C27.6334 17.936 26.0974 18.704 24.3214 18.704C23.3774 18.704 22.5214 18.464 21.7534 17.984C20.9854 17.488 20.4094 16.816 20.0254 15.968C19.6414 15.104 19.4494 13.784 19.4494 12.008V5.288H21.4174V11.528C21.4174 12.968 21.4814 13.952 21.6094 14.48C21.7534 14.992 21.9534 15.432 22.2094 15.8C22.4814 16.152 22.8174 16.416 23.2174 16.592C23.6334 16.768 24.1294 16.856 24.7054 16.856C25.2974 16.856 25.8734 16.712 26.4334 16.424C26.9934 16.136 27.4734 15.736 27.8734 15.224C28.2734 14.712 28.5454 14.168 28.6894 13.592C28.8494 13.016 28.9294 11.864 28.9294 10.136V5.288H30.9214V18.368Z" fill="url(#paint1_linear_2568_145)"/>
<path d="M40.2669 7.016H37.6749V16.184C37.6749 16.52 37.7229 16.728 37.8189 16.808C37.9149 16.872 38.1549 16.904 38.5389 16.904H39.6909V18.608C38.9229 18.736 38.3389 18.8 37.9389 18.8C37.1709 18.8 36.6029 18.616 36.2349 18.248C35.8669 17.864 35.6829 17.264 35.6829 16.448V7.016H33.4269V5.288H35.6829V0.368003H37.6749V5.288H40.2669V7.016Z" fill="url(#paint2_linear_2568_145)"/>
<path d="M48.5917 4.952C50.4797 4.952 52.0797 5.632 53.3917 6.992C54.7197 8.352 55.3837 9.984 55.3837 11.888C55.3837 13.792 54.7277 15.424 53.4157 16.784C52.1197 18.128 50.5117 18.8 48.5917 18.8C46.6717 18.8 45.0557 18.128 43.7437 16.784C42.4317 15.424 41.7757 13.792 41.7757 11.888C41.7757 9.984 42.4317 8.352 43.7437 6.992C45.0717 5.632 46.6877 4.952 48.5917 4.952ZM48.5917 16.904C49.9197 16.904 51.0477 16.424 51.9757 15.464C52.9197 14.488 53.3917 13.32 53.3917 11.96C53.3917 10.584 52.9117 9.40001 51.9517 8.408C51.0077 7.4 49.8797 6.896 48.5677 6.896C47.2717 6.896 46.1517 7.4 45.2077 8.408C44.2637 9.40001 43.7917 10.584 43.7917 11.96C43.7917 13.336 44.2477 14.504 45.1597 15.464C46.0717 16.424 47.2157 16.904 48.5917 16.904Z" fill="url(#paint3_linear_2568_145)"/>
<path d="M65.7103 8.744C66.8303 9.16 67.6703 9.752 68.2303 10.52C68.8063 11.288 69.0943 12.2 69.0943 13.256C69.0943 14.728 68.5583 15.952 67.4863 16.928C66.4303 17.888 65.0463 18.368 63.3343 18.368H58.4143V0.800004H61.9903C63.8463 0.800004 65.2543 1.184 66.2143 1.952C67.1903 2.704 67.6783 3.784 67.6783 5.192C67.6783 6.728 67.0223 7.912 65.7103 8.744ZM60.4543 8H61.2703C62.7103 8 63.7823 7.776 64.4863 7.328C65.2063 6.88 65.5663 6.168 65.5663 5.192C65.5663 3.608 64.4703 2.816 62.2783 2.816H60.4543V8ZM60.4543 16.352H62.4223C63.6543 16.352 64.5503 16.232 65.1103 15.992C65.6703 15.752 66.1183 15.384 66.4543 14.888C66.7903 14.392 66.9583 13.888 66.9583 13.376C66.9583 12.864 66.8543 12.416 66.6463 12.032C66.4543 11.632 66.1583 11.28 65.7583 10.976C65.3743 10.672 64.8943 10.448 64.3183 10.304C63.7583 10.144 62.7343 10.064 61.2463 10.064H60.4543V16.352Z" fill="url(#paint4_linear_2568_145)"/>
<path d="M84.9156 18.368H82.9715V16.448C81.5475 18.016 79.9076 18.8 78.0516 18.8C76.1955 18.8 74.6036 18.12 73.2756 16.76C71.9636 15.384 71.3075 13.752 71.3075 11.864C71.3075 9.96 71.9715 8.336 73.2996 6.992C74.6276 5.632 76.2436 4.952 78.1476 4.952C80.0676 4.952 81.6756 5.728 82.9715 7.28V5.288H84.9156V18.368ZM78.1955 16.952C79.5236 16.952 80.6675 16.472 81.6275 15.512C82.5875 14.552 83.0676 13.36 83.0676 11.936C83.0676 10.496 82.5956 9.296 81.6516 8.336C80.7076 7.36 79.5476 6.872 78.1716 6.872C76.8116 6.872 75.6596 7.376 74.7156 8.384C73.7716 9.376 73.2996 10.552 73.2996 11.912C73.2996 13.272 73.7795 14.456 74.7395 15.464C75.6995 16.456 76.8515 16.952 78.1955 16.952Z" fill="url(#paint5_linear_2568_145)"/>
<path d="M99.7384 18.368H97.7704V12.128C97.7704 10.688 97.6984 9.712 97.5544 9.2C97.4264 8.672 97.2264 8.232 96.9544 7.88C96.6984 7.512 96.3624 7.24 95.9464 7.064C95.5464 6.888 95.0504 6.8 94.4584 6.8C93.8824 6.8 93.3144 6.944 92.7544 7.232C92.1944 7.52 91.7144 7.92 91.3144 8.432C90.9144 8.944 90.6344 9.488 90.4744 10.064C90.3304 10.64 90.2584 11.792 90.2584 13.52V18.368H88.2664V5.288H90.2584V7.256C91.5544 5.72 93.0904 4.952 94.8664 4.952C95.8104 4.952 96.6664 5.2 97.4344 5.696C98.2024 6.176 98.7784 6.848 99.1624 7.712C99.5464 8.56 99.7384 9.872 99.7384 11.648V18.368Z" fill="url(#paint6_linear_2568_145)"/>
<path d="M115.995 15.296C115.995 17.024 115.843 18.304 115.539 19.136C115.251 19.968 114.803 20.672 114.195 21.248C113.603 21.824 112.883 22.256 112.035 22.544C111.203 22.848 110.283 23 109.275 23C105.867 23 103.595 21.56 102.459 18.68H104.571C105.499 20.344 107.043 21.176 109.203 21.176C110.195 21.176 111.083 20.984 111.867 20.6C112.651 20.216 113.203 19.704 113.523 19.064C113.843 18.424 114.003 17.44 114.003 16.112V15.992C113.379 16.696 112.627 17.232 111.747 17.6C110.867 17.968 109.955 18.152 109.011 18.152C107.123 18.152 105.539 17.504 104.259 16.208C102.995 14.912 102.371 13.384 102.387 11.624C102.371 9.784 103.035 8.216 104.379 6.92C105.723 5.608 107.315 4.952 109.155 4.952C111.011 4.952 112.627 5.704 114.003 7.208V5.288H115.995V15.296ZM114.075 11.624C114.075 10.248 113.611 9.112 112.683 8.216C111.771 7.32 110.651 6.872 109.323 6.872C107.915 6.872 106.731 7.36 105.771 8.336C104.827 9.296 104.355 10.416 104.355 11.696C104.355 12.976 104.811 14.064 105.723 14.96C106.635 15.84 107.803 16.28 109.227 16.28C110.651 16.28 111.811 15.848 112.707 14.984C113.619 14.104 114.075 12.984 114.075 11.624Z" fill="url(#paint7_linear_2568_145)"/>
<path d="M130.343 18.368H128.351V16.4C127.055 17.936 125.519 18.704 123.743 18.704C122.799 18.704 121.943 18.464 121.175 17.984C120.407 17.488 119.831 16.816 119.447 15.968C119.063 15.104 118.871 13.784 118.871 12.008V5.288H120.839V11.528C120.839 12.968 120.903 13.952 121.031 14.48C121.175 14.992 121.375 15.432 121.631 15.8C121.903 16.152 122.239 16.416 122.639 16.592C123.055 16.768 123.551 16.856 124.127 16.856C124.719 16.856 125.295 16.712 125.855 16.424C126.415 16.136 126.895 15.736 127.295 15.224C127.695 14.712 127.967 14.168 128.111 13.592C128.271 13.016 128.351 11.864 128.351 10.136V5.288H130.343V18.368Z" fill="url(#paint8_linear_2568_145)"/>
<path d="M153.057 18.368H151.041V11.24C151.041 10.104 150.969 9.272 150.825 8.744C150.697 8.216 150.401 7.776 149.937 7.424C149.489 7.056 148.889 6.872 148.137 6.872C147.401 6.872 146.705 7.112 146.049 7.592C145.393 8.072 144.937 8.728 144.681 9.56C144.425 10.376 144.297 11.592 144.297 13.208V18.368H142.353V11.672C142.353 10.36 142.281 9.416 142.137 8.84C142.009 8.264 141.713 7.792 141.249 7.424C140.785 7.056 140.201 6.872 139.497 6.872C138.793 6.872 138.121 7.096 137.481 7.544C136.857 7.976 136.393 8.552 136.089 9.27201C135.785 9.97601 135.633 11.152 135.633 12.8V18.368H133.665V5.288H135.633V7.136C136.753 5.68 138.153 4.952 139.833 4.952C140.745 4.952 141.569 5.2 142.305 5.696C143.057 6.176 143.593 6.864 143.913 7.76C144.457 6.848 145.137 6.152 145.953 5.672C146.769 5.192 147.633 4.952 148.545 4.952C149.793 4.952 150.857 5.392 151.737 6.272C152.617 7.152 153.057 8.808 153.057 11.24V18.368Z" fill="url(#paint9_linear_2568_145)"/>
<path d="M156.932 0.368003C157.364 0.368003 157.724 0.520004 158.012 0.824005C158.316 1.112 158.468 1.472 158.468 1.904C158.468 2.32 158.316 2.68 158.012 2.984C157.724 3.272 157.364 3.416 156.932 3.416C156.516 3.416 156.156 3.264 155.852 2.96C155.564 2.656 155.42 2.304 155.42 1.904C155.42 1.488 155.564 1.128 155.852 0.824005C156.156 0.520004 156.516 0.368003 156.932 0.368003ZM157.94 18.368H155.948V5.288H157.94V18.368Z" fill="url(#paint10_linear_2568_145)"/>
<defs>
<linearGradient id="paint0_linear_2568_145" x1="0.531737" y1="11.552" x2="158.468" y2="11.552" gradientUnits="userSpaceOnUse">
<stop stop-color="#492897"/>
<stop offset="1" stop-color="#783674"/>
</linearGradient>
<linearGradient id="paint1_linear_2568_145" x1="0.531737" y1="11.552" x2="158.468" y2="11.552" gradientUnits="userSpaceOnUse">
<stop stop-color="#492897"/>
<stop offset="1" stop-color="#783674"/>
</linearGradient>
<linearGradient id="paint2_linear_2568_145" x1="0.531737" y1="11.552" x2="158.468" y2="11.552" gradientUnits="userSpaceOnUse">
<stop stop-color="#492897"/>
<stop offset="1" stop-color="#783674"/>
</linearGradient>
<linearGradient id="paint3_linear_2568_145" x1="0.531737" y1="11.552" x2="158.468" y2="11.552" gradientUnits="userSpaceOnUse">
<stop stop-color="#492897"/>
<stop offset="1" stop-color="#783674"/>
</linearGradient>
<linearGradient id="paint4_linear_2568_145" x1="0.531737" y1="11.552" x2="158.468" y2="11.552" gradientUnits="userSpaceOnUse">
<stop stop-color="#492897"/>
<stop offset="1" stop-color="#783674"/>
</linearGradient>
<linearGradient id="paint5_linear_2568_145" x1="0.531737" y1="11.552" x2="158.468" y2="11.552" gradientUnits="userSpaceOnUse">
<stop stop-color="#492897"/>
<stop offset="1" stop-color="#783674"/>
</linearGradient>
<linearGradient id="paint6_linear_2568_145" x1="0.531737" y1="11.552" x2="158.468" y2="11.552" gradientUnits="userSpaceOnUse">
<stop stop-color="#492897"/>
<stop offset="1" stop-color="#783674"/>
</linearGradient>
<linearGradient id="paint7_linear_2568_145" x1="0.531737" y1="11.552" x2="158.468" y2="11.552" gradientUnits="userSpaceOnUse">
<stop stop-color="#492897"/>
<stop offset="1" stop-color="#783674"/>
</linearGradient>
<linearGradient id="paint8_linear_2568_145" x1="0.531737" y1="11.552" x2="158.468" y2="11.552" gradientUnits="userSpaceOnUse">
<stop stop-color="#492897"/>
<stop offset="1" stop-color="#783674"/>
</linearGradient>
<linearGradient id="paint9_linear_2568_145" x1="0.531737" y1="11.552" x2="158.468" y2="11.552" gradientUnits="userSpaceOnUse">
<stop stop-color="#492897"/>
<stop offset="1" stop-color="#783674"/>
</linearGradient>
<linearGradient id="paint10_linear_2568_145" x1="0.531737" y1="11.552" x2="158.468" y2="11.552" gradientUnits="userSpaceOnUse">
<stop stop-color="#492897"/>
<stop offset="1" stop-color="#783674"/>
</linearGradient>
</defs>
</svg>
