<svg width="20" height="20" viewBox="0 0 20 20" fill="none" xmlns="http://www.w3.org/2000/svg">
<path d="M2.88235 20C2.07843 20 1.39706 19.7206 0.838235 19.1618C0.279412 18.6029 0 17.9216 0 17.1176C0 16.3137 0.279412 15.6324 0.838235 15.0735C1.39706 14.5147 2.07843 14.2353 2.88235 14.2353C3.68627 14.2353 4.36765 14.5147 4.92647 15.0735C5.48529 15.6324 5.76471 16.3137 5.76471 17.1176C5.76471 17.9216 5.48529 18.6029 4.92647 19.1618C4.36765 19.7206 3.68627 20 2.88235 20ZM18.3529 20C17.8007 20 17.356 19.5519 17.326 19.0004C17.2159 16.9786 16.769 15.0618 15.9853 13.25C15.0735 11.1422 13.8333 9.30392 12.2647 7.73529C10.6961 6.16667 8.85784 4.92647 6.75 4.01471C4.93823 3.23101 3.02143 2.78412 0.999605 2.67404C0.448137 2.64402 0 2.19934 0 1.64706V1C0 0.447716 0.448008 -0.00260278 0.999689 0.0232079C3.39202 0.135134 5.65193 0.651908 7.77941 1.57353C10.201 2.62255 12.3186 4.05392 14.1324 5.86765C15.9461 7.68137 17.3775 9.79902 18.4265 12.2206C19.3481 14.3481 19.8649 16.608 19.9768 19.0003C20.0026 19.552 19.5523 20 19 20H18.3529ZM11.3529 20C10.8007 20 10.3572 19.5513 10.3186 19.0004C10.1328 16.3515 9.19327 14.1455 7.5 12.3824C5.80702 10.6196 3.6402 9.64132 0.999535 9.44763C0.44873 9.40723 0 8.96405 0 8.41176V7.76471C0 7.21242 0.448269 6.76093 0.99942 6.79631C2.51743 6.89375 3.92939 7.21655 5.23529 7.76471C6.82353 8.43137 8.19118 9.35294 9.33824 10.5294C10.4853 11.7059 11.3824 13.1029 12.0294 14.7206C12.5616 16.0511 12.8749 17.4777 12.9694 19.0005C13.0036 19.5518 12.5523 20 12 20H11.3529Z" fill="currentColor"/>
</svg>
