<svg width="20" height="20" viewBox="0 0 20 20" fill="none" xmlns="http://www.w3.org/2000/svg">
<path d="M2.88235 20C2.07843 20 1.39706 19.7206 0.838235 19.1618C0.279412 18.6029 0 17.9216 0 17.1176C0 16.3137 0.279412 15.6324 0.838235 15.0735C1.39706 14.5147 2.07843 14.2353 2.88235 14.2353C3.68627 14.2353 4.36765 14.5147 4.92647 15.0735C5.48529 15.6324 5.76471 16.3137 5.76471 17.1176C5.76471 17.9216 5.48529 18.6029 4.92647 19.1618C4.36765 19.7206 3.68627 20 2.88235 20ZM17.3529 20C17.3529 17.6078 16.8971 15.3578 15.9853 13.25C15.0735 11.1422 13.8333 9.30392 12.2647 7.73529C10.6961 6.16667 8.85784 4.92647 6.75 4.01471C4.64216 3.10294 2.39216 2.64706 0 2.64706V0C2.76471 0 5.35784 0.52451 7.77941 1.57353C10.201 2.62255 12.3186 4.05392 14.1324 5.86765C15.9461 7.68137 17.3775 9.79902 18.4265 12.2206C19.4755 14.6422 20 17.2353 20 20H17.3529ZM10.3529 20C10.3529 16.902 9.40196 14.3627 7.5 12.3824C5.59804 10.402 3.09804 9.41177 0 9.41177V6.76471C1.90196 6.76471 3.64706 7.09804 5.23529 7.76471C6.82353 8.43137 8.19118 9.35294 9.33823 10.5294C10.4853 11.7059 11.3824 13.1029 12.0294 14.7206C12.6765 16.3382 13 18.098 13 20H10.3529Z" fill="currentColor"/>
</svg>
